0
SECTION
2
HEADER
9
$INSUNITS
70
4
9
$ACADVER
1
AC1014
9
$HANDSEED
5
FFFF
0
ENDSEC
0
SECTION
2
TABLES
0
TABLE
2
VPORT
5
8
100
AcDbSymbolTable
0
ENDTAB
0
TABLE
2
LTYPE
5
5
100
AcDbSymbolTable
0
LTYPE
5
14
100
AcDbSymbolTableRecord
100
AcDbLinetypeTableRecord
2
BYBLOCK
70
0
0
LTYPE
5
15
100
AcDbSymbolTableRecord
100
AcDbLinetypeTableRecord
2
BYLAYER
70
0
0
ENDTAB
0
TABLE
2
LAYER
5
2
100
AcDbSymbolTable
70
2
0
LAYER
5
50
100
AcDbSymbolTableRecord
100
AcDbLayerTableRecord
2
0
70
0
6
CONTINUOUS
0
ENDTAB
0
TABLE
2
STYLE
5
3
100
AcDbSymbolTable
70
1
0
STYLE
5
11
100
AcDbSymbolTableRecord
100
AcDbTextStyleTableRecord
2
STANDARD
70
0
0
ENDTAB
0
TABLE
2
VIEW
5
6
100
AcDbSymbolTable
70
0
0
ENDTAB
0
TABLE
2
UCS
5
7
100
AcDbSymbolTable
70
0
0
ENDTAB
0
TABLE
2
APPID
5
9
100
AcDbSymbolTable
70
2
0
APPID
5
12
100
AcDbSymbolTableRecord
100
AcDbRegAppTableRecord
2
ACAD
70
0
0
ENDTAB
0
TABLE
2
DIMSTYLE
5
A
100
AcDbSymbolTable
70
1
0
ENDTAB
0
TABLE
2
BLOCK_RECORD
5
1
100
AcDbSymbolTable
70
1
0
BLOCK_RECORD
5
1F
100
AcDbSymbolTableRecord
100
AcDbBlockTableRecord
2
*MODEL_SPACE
0
BLOCK_RECORD
5
1B
100
AcDbSymbolTableRecord
100
AcDbBlockTableRecord
2
*PAPER_SPACE
0
ENDTAB
0
ENDSEC
0
SECTION
2
BLOCKS
0
BLOCK
5
20
100
AcDbEntity
100
AcDbBlockBegin
2
*MODEL_SPACE
0
ENDBLK
5
21
100
AcDbEntity
100
AcDbBlockEnd
0
BLOCK
5
1C
100
AcDbEntity
100
AcDbBlockBegin
2
*PAPER_SPACE
0
ENDBLK
5
1D
100
AcDbEntity
100
AcDbBlockEnd
0
ENDSEC
0
SECTION
2
ENTITIES
0
CIRCLE
5
100
100
AcDbEntity
8
0
100
AcDbCircle
10
-17.490000000000023
20
-52.200000000000024
30
0
40
1.5000000000000036
210
0
220
-0
230
1
0
CIRCLE
5
101
100
AcDbEntity
8
0
100
AcDbCircle
10
-17.490000000000038
20
-30.650000000000013
30
0
40
1.4999999999999969
210
0
220
-0
230
1
0
CIRCLE
5
102
100
AcDbEntity
8
0
100
AcDbCircle
10
17.490000000000023
20
-52.200000000000024
30
0
40
1.5000000000000036
210
0
220
0
230
1
0
CIRCLE
5
103
100
AcDbEntity
8
0
100
AcDbCircle
10
17.490000000000038
20
-30.650000000000013
30
0
40
1.4999999999999969
210
0
220
0
230
1
0
CIRCLE
5
104
100
AcDbEntity
8
0
100
AcDbCircle
10
-43.000000000000185
20
-38.08128414062304
30
0
40
1.5000000000000036
210
0
220
-0
230
1
0
LWPOLYLINE
5
105
100
AcDbEntity
8
0
100
AcDbPolyline
90
16
70
1
43
0.0
10
-51.136794054286376
20
-32.98794342787442
10
-61.719854476263947
20
-39.098076211353252
42
0.4142135623730982
10
-62.085879880048402
20
-40.464101615137693
10
-52.152950656637849
20
-57.668439698070429
42
0.26794919243112253
10
-51.286925252853415
20
-58.168439698070429
10
-22.000000000000014
20
-58.168439698070429
42
0.41421356237309243
10
-21.000000000000014
20
-57.168439698070436
10
-21.000000000000014
20
-17.743157806499141
42
0.41421356237309176
10
-22.000000000000014
20
-16.743157806499145
10
-22.732050807568882
20
-16.743157806499141
42
0.13165249758739883
10
-23.232050807568886
20
-16.877132402714704
10
-43.342565420226428
20
-28.487943427874423
42
0.41421356237309437
10
-43.708590824010869
20
-29.853968831658861
10
-39.968911086754261
20
-36.331284140623275
42
-0.99999999999999989
10
-46.031088913246109
20
-39.831284140622799
10
-49.770768650501935
20
-33.353968831658861
42
0.41421356237309387
0
CIRCLE
5
106
100
AcDbEntity
8
0
100
AcDbCircle
10
42.999999999999829
20
-38.08128414062309
30
0
40
1.5000000000000036
210
0
220
-0
230
1
0
LWPOLYLINE
5
107
100
AcDbEntity
8
0
100
AcDbPolyline
90
16
70
1
43
0.0
10
61.719854476263947
20
-39.098076211353252
10
51.136794054286383
20
-32.987943427874441
42
0.4142135623730952
10
49.770768650501942
20
-33.353968831658868
10
46.03108891324537
20
-39.831284140623097
42
-0.99999999999999989
10
39.968911086754296
20
-36.33128414062309
10
43.708590824010862
20
-29.853968831658854
42
0.41421356237309037
10
43.342565420226428
20
-28.487943427874427
10
23.232050807568886
20
-16.877132402714704
42
0.1316524975873955
10
22.732050807568886
20
-16.743157806499145
10
22.000000000000014
20
-16.743157806499141
42
0.41421356237309509
10
21.000000000000014
20
-17.743157806499141
10
21.000000000000014
20
-57.168439698070436
42
0.41421356237309509
10
22.000000000000014
20
-58.168439698070429
10
51.286925252853415
20
-58.168439698070429
42
0.26794919243112075
10
52.15295065663787
20
-57.668439698070443
10
62.085879880048395
20
-40.464101615137686
42
0.41421356237309331
0
LWPOLYLINE
5
108
100
AcDbEntity
8
0
100
AcDbPolyline
90
8
70
1
43
0.0
10
-13.000000000000021
20
-17.743157806499141
42
-0.4142135623730937
10
-12.00000000000002
20
-16.743157806499141
10
12.00000000000002
20
-16.743157806499141
42
-0.41421356237309509
10
13.000000000000021
20
-17.743157806499141
10
13.000000000000016
20
-57.168439698070429
42
-0.41421356237309509
10
12.00000000000002
20
-58.168439698070422
10
-12.00000000000002
20
-58.168439698070422
42
-0.41421356237309509
10
-13.000000000000021
20
-57.168439698070429
0
LWPOLYLINE
5
109
100
AcDbEntity
8
0
100
AcDbPolyline
90
19
70
1
43
0.0
10
-45.787582733818454
20
31.212594108201177
42
-0.11323701145891751
10
-45.544664053372173
20
30.837107071553753
10
-29.704392276856947
20
-12.731953328169009
42
-0.36386941127956413
10
-30.144206640757865
20
-13.939664203411496
10
-64.719854476263947
20
-33.90192378864662
42
-0.41421356237309337
10
-66.085879880048395
20
-33.535898384862179
10
-77.085879880048381
20
-14.483339501604533
42
0.4142135623730962
10
-92.112159321677197
20
-10.45706005997571
10
-94.84788798650554
20
-12.036533741044106
42
-0.53910861107441177
10
-96.341095153031659
20
-11.286867799106135
42
-0.12439745133949373
10
-90.137095595322791
20
35.837187356705854
42
-0.53910861107439412
10
-88.500740405937037
20
36.174838598132524
10
-86.267027304758756
20
33.941125496954243
42
0.41421356237309337
10
-70.710678118654741
20
33.941125496954271
10
-55.154328932550683
20
49.497474683058314
42
-0.41421356237309132
10
-53.740115370177591
20
49.497474683058314
10
-44.197496319803818
20
39.954855632684541
42
-0.41421356237309132
10
-44.197496319803818
20
38.540642070311449
10
-45.828426576804652
20
36.909711813310835
42
0.41841949390960481
0
LWPOLYLINE
5
110
100
AcDbEntity
8
0
100
AcDbPolyline
90
19
70
1
43
0.0
10
45.544664053372173
20
30.837107071553753
42
-0.11323701145891392
10
45.787582733818454
20
31.212594108201177
42
0.41841944415872973
10
45.828427055809406
20
36.909711334305875
10
44.197496319803818
20
38.540642070311449
42
-0.41421356237309415
10
44.197496319803818
20
39.954855632684541
10
53.740115370177591
20
49.497474683058314
42
-0.41421356237309509
10
55.154328932550683
20
49.497474683058314
10
70.710678118654727
20
33.941125496954285
42
0.4142135623730957
10
86.267027304758784
20
33.941125496954271
10
88.500740405937037
20
36.174838598132524
42
-0.53910861107440777
10
90.137095595322762
20
35.837187356705869
42
-0.12439745133949384
10
96.341095153031645
20
-11.286867799106089
42
-0.53910861107442176
10
94.84788798650554
20
-12.036533741044105
10
92.112159321677211
20
-10.457060059975705
42
0.41421356237309515
10
77.085879880048395
20
-14.483339501604524
10
66.085879880048395
20
-33.535898384862179
42
-0.41421356237309337
10
64.719854476263947
20
-33.90192378864662
10
30.144206640757865
20
-13.9396642034115
42
-0.36386941127956191
10
29.704392276856947
20
-12.731953328169009
0
CIRCLE
5
111
100
AcDbEntity
8
0
100
AcDbCircle
10
42.999999999999865
20
34.081284140623033
30
0
40
1.5000000000000036
210
0
220
-0
230
1
0
CIRCLE
5
112
100
AcDbEntity
8
0
100
AcDbCircle
10
-43.000000000000149
20
34.081284140623055
30
0
40
1.5000000000000036
210
0
220
-0
230
1
0
CIRCLE
5
113
100
AcDbEntity
8
0
100
AcDbCircle
10
-90.832671901900852
20
44.163624343588729
30
0
40
1.5000000000000036
210
0
220
0
230
1
0
CIRCLE
5
114
100
AcDbEntity
8
0
100
AcDbCircle
10
66.168010741761464
20
-76.30723658001331
30
0
40
1.5000000000000036
210
0
220
0
230
1
0
CIRCLE
5
115
100
AcDbEntity
8
0
100
AcDbCircle
10
99.168010741761506
20
-19.149559930240386
30
0
40
1.5000000000000036
210
0
220
0
230
1
0
CIRCLE
5
116
100
AcDbEntity
8
0
100
AcDbCircle
10
-44.163624343588673
20
90.832671901900866
30
0
40
1.4999999999999947
210
0
220
0
230
1
0
CIRCLE
5
117
100
AcDbEntity
8
0
100
AcDbCircle
10
-99.168010741761506
20
-19.149559930240368
30
0
40
1.5000000000000036
210
0
220
0
230
1
0
CIRCLE
5
118
100
AcDbEntity
8
0
100
AcDbCircle
10
-66.168010741761478
20
-76.30723658001331
30
0
40
1.5000000000000036
210
0
220
0
230
1
0
CIRCLE
5
119
100
AcDbEntity
8
0
100
AcDbCircle
10
90.832671901900852
20
44.163624343588708
30
0
40
1.5000000000000036
210
0
220
0
230
1
0
CIRCLE
5
120
100
AcDbEntity
8
0
100
AcDbCircle
10
44.163624343588694
20
90.832671901900866
30
0
40
1.4999999999999947
210
0
220
0
230
1
0
CIRCLE
5
121
100
AcDbEntity
8
0
100
AcDbCircle
10
49.999999999999972
20
-68.897675608398544
30
0
40
1.25
210
0
220
0
230
1
0
CIRCLE
5
122
100
AcDbEntity
8
0
100
AcDbCircle
10
-49.999999999999972
20
-68.897675608398544
30
0
40
1.25
210
0
220
0
230
1
0
CIRCLE
5
123
100
AcDbEntity
8
0
100
AcDbCircle
10
26.000000000000028
20
53.999999999999993
30
0
40
1.5000000000000036
210
0
220
0
230
1
0
CIRCLE
5
124
100
AcDbEntity
8
0
100
AcDbCircle
10
26.000000000000007
20
78.488852711706741
30
0
40
1.5000000000000036
210
0
220
0
230
1
0
CIRCLE
5
125
100
AcDbEntity
8
0
100
AcDbCircle
10
-26.000000000000028
20
53.999999999999993
30
0
40
1.5000000000000036
210
0
220
0
230
1
0
CIRCLE
5
126
100
AcDbEntity
8
0
100
AcDbCircle
10
-26.000000000000007
20
78.488852711706741
30
0
40
1.5000000000000036
210
0
220
0
230
1
0
CIRCLE
5
127
100
AcDbEntity
8
0
100
AcDbCircle
10
16.000000000000032
20
96
30
0
40
1.5000000000000058
210
0
220
0
230
1
0
CIRCLE
5
128
100
AcDbEntity
8
0
100
AcDbCircle
10
-16.000000000000032
20
96
30
0
40
1.5000000000000058
210
0
220
-0
230
1
0
ARC
5
129
100
AcDbEntity
8
0
100
AcDbCircle
10
-45.99999999999995
20
-85.168439698070486
30
0
40
0.99999999999999645
210
0
220
0
230
1
100
AcDbArc
50
-90.000000000000398
51
0
0
LINE
5
130
100
AcDbEntity
8
0
100
AcDbLine
10
-44.999999999999957
20
-85.168439698070486
30
0
11
-44.999999999999943
21
-66.668439698070415
31
0
0
ARC
5
131
100
AcDbEntity
8
0
100
AcDbCircle
10
-44.49999999999995
20
-66.668439698070415
30
0
40
0.49999999999999822
210
0
220
-0
230
1
100
AcDbArc
50
90
51
180
0
LINE
5
132
100
AcDbEntity
8
0
100
AcDbLine
10
-44.49999999999995
20
-66.168439698070415
30
0
11
44.49999999999995
21
-66.168439698070415
31
0
0
ARC
5
133
100
AcDbEntity
8
0
100
AcDbCircle
10
44.49999999999995
20
-66.668439698070415
30
0
40
0.49999999999999822
210
0
220
0
230
1
100
AcDbArc
50
0
51
90
0
LINE
5
134
100
AcDbEntity
8
0
100
AcDbLine
10
44.999999999999943
20
-66.668439698070415
30
0
11
44.999999999999972
21
-85.168439698070486
31
0
0
ARC
5
135
100
AcDbEntity
8
0
100
AcDbCircle
10
45.999999999999957
20
-85.168439698070486
30
0
40
0.99999999999998757
210
0
220
0
230
1
100
AcDbArc
50
180
51
270.0000000000008
0
LINE
5
136
100
AcDbEntity
8
0
100
AcDbLine
10
45.999999999999972
20
-86.168439698070472
30
0
11
59.685315441875069
21
-86.168439698070486
31
0
0
ARC
5
137
100
AcDbEntity
8
0
100
AcDbCircle
10
59.685315441875062
20
-85.168439698070429
30
0
40
1.0000000000000497
210
0
220
0
230
1
100
AcDbArc
50
270.0000000000004
51
305.02244343319444
0
ARC
5
138
100
AcDbEntity
8
0
100
AcDbCircle
10
7.1054273576010019e-14
20
-4.4408920985006262e-15
30
0
40
104.99999999999994
210
-0
220
0
230
1
100
AcDbArc
50
305.02244343319478
51
311.71611005959261
0
ARC
5
139
100
AcDbEntity
8
0
100
AcDbCircle
10
67.874906855387891
20
-76.138012972315025
30
0
40
2.99999999999998
210
-0
220
0
230
1
100
AcDbArc
50
-48.283889940407313
51
59.999999999999659
0
LINE
5
140
100
AcDbEntity
8
0
100
AcDbLine
10
69.37490685538792
20
-73.539936760961695
30
0
11
59.11215932167724
21
-67.614736709748669
31
0
0
ARC
5
141
100
AcDbEntity
8
0
100
AcDbCircle
10
60.61215932167724
20
-65.016660498395353
30
0
40
3.0000000000000049
210
0
220
0
230
1
100
AcDbArc
50
150.00000000000003
51
239.99999999999997
0
LINE
5
142
100
AcDbEntity
8
0
100
AcDbLine
10
58.014083110323924
20
-63.516660498395353
30
0
11
84.014083110323895
21
-18.483339501604519
31
0
0
ARC
5
143
100
AcDbEntity
8
0
100
AcDbCircle
10
86.612159321677211
20
-19.983339501604526
30
0
40
3.0000000000000009
210
0
220
-0
230
1
100
AcDbArc
50
59.999999999999993
51
149.99999999999989
0
LINE
5
144
100
AcDbEntity
8
0
100
AcDbLine
10
88.112159321677211
20
-17.38526329025121
30
0
11
98.374906855387906
21
-23.310463341464249
31
0
0
ARC
5
145
100
AcDbEntity
8
0
100
AcDbCircle
10
99.874906855387934
20
-20.712387130110912
30
0
40
3.0000000000000293
210
0
220
0
230
1
100
AcDbArc
50
239.99999999999972
51
348.28388994040739
0
ARC
5
146
100
AcDbEntity
8
0
100
AcDbCircle
10
7.1054273576010019e-14
20
-4.4408920985006262e-15
30
0
40
104.99999999999993
210
-0
220
0
230
1
100
AcDbArc
50
-11.716110059592573
51
26.716110059592612
0
ARC
5
147
100
AcDbEntity
8
0
100
AcDbCircle
10
91.110991671025232
20
45.856157675086223
30
0
40
2.9999999999999853
210
0
220
-0
230
1
100
AcDbArc
50
26.716110059591514
51
135.00000000000011
0
LINE
5
148
100
AcDbEntity
8
0
100
AcDbLine
10
88.989671327465601
20
47.977478018645847
30
0
11
80.610173055266401
21
39.597979746446647
31
0
0
ARC
5
149
100
AcDbEntity
8
0
100
AcDbCircle
10
78.488852711706755
20
41.719300090006293
30
0
40
3.0000000000000004
210
0
220
0
230
1
100
AcDbArc
50
224.99999999999989
51
315
0
LINE
5
150
100
AcDbEntity
8
0
100
AcDbLine
10
76.36753236814711
20
39.597979746446654
30
0
11
39.597979746446633
21
76.367532368147124
31
0
0
ARC
5
151
100
AcDbEntity
8
0
100
AcDbCircle
10
41.719300090006271
20
78.488852711706755
30
0
40
2.9999999999999973
210
0
220
0
230
1
100
AcDbArc
50
134.99999999999991
51
224.99999999999989
0
LINE
5
152
100
AcDbEntity
8
0
100
AcDbLine
10
39.597979746446633
20
80.610173055266401
30
0
11
47.977478018645819
21
88.989671327465601
31
0
0
ARC
5
153
100
AcDbEntity
8
0
100
AcDbCircle
10
45.856157675086209
20
91.110991671025232
30
0
40
2.9999999999999756
210
-0
220
0
230
1
100
AcDbArc
50
-45.000000000000306
51
63.283889940407875
0
ARC
5
154
100
AcDbEntity
8
0
100
AcDbCircle
10
7.1054273576010019e-14
20
-4.4408920985006262e-15
30
0
40
104.99999999999994
210
0
220
-0
230
1
100
AcDbArc
50
63.283889940407434
51
81.216029294713863
0
ARC
5
155
100
AcDbEntity
8
0
100
AcDbCircle
10
15.500000000000039
20
100.30952098380291
30
0
40
3.5000000000000235
210
0
220
-0
230
1
100
AcDbArc
50
81.216029294714176
51
180
0
LINE
5
156
100
AcDbEntity
8
0
100
AcDbLine
10
12.000000000000028
20
100.30952098380291
30
0
11
12.000000000000025
21
95.999999999999972
31
0
0
ARC
5
157
100
AcDbEntity
8
0
100
AcDbCircle
10
16.000000000000032
20
96
30
0
40
4.000000000000008
210
0
220
0
230
1
100
AcDbArc
50
180
51
269.99999999999983
0
LINE
5
158
100
AcDbEntity
8
0
100
AcDbLine
10
16.000000000000021
20
92
30
0
11
16.149752406799877
21
92
31
0
0
ARC
5
159
100
AcDbEntity
8
0
100
AcDbCircle
10
16.149752406799887
20
95.999999999999972
30
0
40
3.9999999999999858
210
0
220
0
230
1
100
AcDbArc
50
269.99999999999983
51
333.37725305565129
0
ARC
5
160
100
AcDbEntity
8
0
100
AcDbCircle
10
20.619634416583665
20
93.759429800561634
30
0
40
0.99999999999999889
210
0
220
-0
230
1
100
AcDbArc
50
77.596918268407222
51
153.3772530556522
0
ARC
5
161
100
AcDbEntity
8
0
100
AcDbCircle
10
7.1054273576010019e-14
20
-4.4408920985006262e-15
30
0
40
97
210
0
220
-0
230
1
100
AcDbArc
50
70.655860987136109
51
77.59691826840718
0
ARC
5
162
100
AcDbEntity
8
0
100
AcDbCircle
10
30.971068239549936
20
88.221555937883736
30
0
40
3.4999999999999871
210
-0
220
0
230
1
100
AcDbArc
50
-42.16136545878728
51
70.655860987135881
0
ARC
5
163
100
AcDbEntity
8
0
100
AcDbCircle
10
41.719300090006271
20
78.488852711706755
30
0
40
11.000000000000004
210
0
220
0
230
1
100
AcDbArc
50
137.83863454121271
51
153.36688125084419
0
ARC
5
164
100
AcDbEntity
8
0
100
AcDbCircle
10
28.757818693190544
20
84.988852711706727
30
0
40
3.4999999999999964
210
-0
220
0
230
1
100
AcDbArc
50
270
51
333.3668812508443
0
LINE
5
165
100
AcDbEntity
8
0
100
AcDbLine
10
28.757818693190544
20
81.488852711706727
30
0
11
26.000000000000007
21
81.488852711706727
31
0
0
ARC
5
166
100
AcDbEntity
8
0
100
AcDbCircle
10
26.000000000000007
20
78.488852711706741
30
0
40
2.9999999999999893
210
0
220
-0
230
1
100
AcDbArc
50
90
51
270.00000285546452
0
LINE
5
167
100
AcDbEntity
8
0
100
AcDbLine
10
26.000000149511781
20
75.488852711706741
30
0
11
28.757818693190558
21
75.488852711706755
31
0
0
ARC
5
168
100
AcDbEntity
8
0
100
AcDbCircle
10
28.757818693190558
20
71.988852711706755
30
0
40
3.5000000000000004
210
0
220
-0
230
1
100
AcDbArc
50
26.63311874915594
51
90
0
ARC
5
169
100
AcDbEntity
8
0
100
AcDbCircle
10
41.719300090006271
20
78.488852711706755
30
0
40
10.999999999999998
210
0
220
0
230
1
100
AcDbArc
50
206.63311874915593
51
225
0
LINE
5
170
100
AcDbEntity
8
0
100
AcDbLine
10
33.941125496954257
20
70.710678118654741
30
0
11
49.497474683058307
21
55.154328932550698
31
0
0
ARC
5
171
100
AcDbEntity
8
0
100
AcDbCircle
10
48.790367901871761
20
54.447222151364151
30
0
40
0.999999999999998
210
-0
220
0
230
1
100
AcDbArc
50
-44.999999999999439
51
45
0
LINE
5
172
100
AcDbEntity
8
0
100
AcDbLine
10
49.497474683058314
20
53.740115370177612
30
0
11
42.298097038856255
21
46.540737725975617
31
0
0
ARC
5
173
100
AcDbEntity
8
0
100
AcDbCircle
10
39.823223304703362
20
49.015611460128511
30
0
40
3.4999999999999991
210
0
220
0
230
1
100
AcDbArc
50
225.00000000000014
51
315
0
LINE
5
174
100
AcDbEntity
8
0
100
AcDbLine
10
37.348349570550454
20
46.540737725975589
30
0
11
27.944543648263036
21
55.944543648263007
31
0
0
ARC
5
175
100
AcDbEntity
8
0
100
AcDbCircle
10
26.000000000000028
20
53.999999999999993
30
0
40
2.750000000000004
210
0
220
-0
230
1
100
AcDbArc
50
45.000000000000107
51
225.00000000000006
0
LINE
5
176
100
AcDbEntity
8
0
100
AcDbLine
10
24.055456351737025
20
52.055456351736986
30
0
11
35.777953012678068
21
40.332959690795953
31
0
0
ARC
5
177
100
AcDbEntity
8
0
100
AcDbCircle
10
35.070846231491522
20
39.625852909609407
30
0
40
1.0000000000000011
210
0
220
-0
230
1
100
AcDbArc
50
20.631272030711344
51
45
0
LINE
5
178
100
AcDbEntity
8
0
100
AcDbLine
10
36.006713592678715
20
39.978205406783083
30
0
11
38.630164721817195
21
33.010176784524759
31
0
0
ARC
5
179
100
AcDbEntity
8
0
100
AcDbCircle
10
37.694297360630003
20
32.657824287351083
30
0
40
0.99999999999999767
210
-0
220
0
230
1
100
AcDbArc
50
-19.97959540933854
51
20.631272030711344
0
LINE
5
180
100
AcDbEntity
8
0
100
AcDbLine
10
38.634111724530918
20
32.316138815893041
30
0
11
22.854947670338113
21
-11.084843277957184
31
0
0
ARC
5
181
100
AcDbEntity
8
0
100
AcDbCircle
10
21.915133306437195
20
-10.74315780649914
30
0
40
1.0000000000000009
210
-0
220
0
230
1
100
AcDbArc
50
270
51
340.02040459066149
0
LINE
5
182
100
AcDbEntity
8
0
100
AcDbLine
10
21.915133306437195
20
-11.743157806499141
30
0
11
-21.915133306437195
21
-11.743157806499141
31
0
0
ARC
5
183
100
AcDbEntity
8
0
100
AcDbCircle
10
-21.915133306437191
20
-10.743157806499134
30
0
40
1.0000000000000069
210
0
220
0
230
1
100
AcDbArc
50
199.97959540933849
51
269.99999999999983
0
LINE
5
184
100
AcDbEntity
8
0
100
AcDbLine
10
-22.85494767033812
20
-11.084843277957182
30
0
11
-38.760541857825828
21
32.663888033304687
31
0
0
LINE
5
185
100
AcDbEntity
8
0
100
AcDbLine
10
-38.760541857825828
20
32.663888033304687
30
0
11
-35.934136008177362
21
40.176776695296653
31
0
0
LINE
5
186
100
AcDbEntity
8
0
100
AcDbLine
10
-35.934136008177362
20
40.176776695296653
30
0
11
-24.055456351737021
21
52.055456351736986
31
0
0
ARC
5
187
100
AcDbEntity
8
0
100
AcDbCircle
10
-26.000000000000028
20
53.999999999999993
30
0
40
2.750000000000004
210
-0
220
0
230
1
100
AcDbArc
50
-45
51
135.00000000000011
0
LINE
5
188
100
AcDbEntity
8
0
100
AcDbLine
10
-27.944543648263029
20
55.944543648262986
30
0
11
-39.823223304703376
21
44.065863991822667
31
0
0
LINE
5
189
100
AcDbEntity
8
0
100
AcDbLine
10
-39.823223304703376
20
44.065863991822667
30
0
11
-49.497474683058314
21
53.740115370177612
31
0
0
ARC
5
190
100
AcDbEntity
8
0
100
AcDbCircle
10
-48.790367901871754
20
54.447222151364151
30
0
40
1.0000000000000042
210
0
220
0
230
1
100
AcDbArc
50
135.00000000000031
51
224.99999999999912
0
LINE
5
191
100
AcDbEntity
8
0
100
AcDbLine
10
-49.497474683058307
20
55.154328932550698
30
0
11
-33.941125496954278
21
70.710678118654698
31
0
0
ARC
5
192
100
AcDbEntity
8
0
100
AcDbCircle
10
-41.719300090006257
20
78.488852711706755
30
0
40
10.999999999999995
210
-0
220
0
230
1
100
AcDbArc
50
314.99999999999972
51
344.17337986812794
0
LINE
5
193
100
AcDbEntity
8
0
100
AcDbLine
10
-31.136294845747887
20
75.488852711706812
30
0
11
-26.000000149511781
21
75.488852711706741
31
0
0
ARC
5
194
100
AcDbEntity
8
0
100
AcDbCircle
10
-26.000000000000007
20
78.488852711706741
30
0
40
3.0000000000000022
210
0
220
0
230
1
100
AcDbArc
50
-90.00000285546453
51
90.000000102093722
0
LINE
5
195
100
AcDbEntity
8
0
100
AcDbLine
10
-26.000000005345623
20
81.488852711706713
30
0
11
-31.136294845747905
21
81.488852711706727
31
0
0
ARC
5
196
100
AcDbEntity
8
0
100
AcDbCircle
10
-41.719300090006257
20
78.488852711706755
30
0
40
10.999999999999982
210
0
220
-0
230
1
100
AcDbArc
50
15.826620131872206
51
45.000000000000185
0
LINE
5
197
100
AcDbEntity
8
0
100
AcDbLine
10
-33.94112549695425
20
86.267027304758813
30
0
11
-37.240519032687203
21
89.566420840491716
31
0
0
ARC
5
198
100
AcDbEntity
8
0
100
AcDbCircle
10
7.1054273576010019e-14
20
-4.4408920985006262e-15
30
0
40
97.000000000000043
210
0
220
0
230
1
100
AcDbArc
50
102.40308173159293
51
112.57688739296452
0
ARC
5
199
100
AcDbEntity
8
0
100
AcDbCircle
10
-20.619634416583658
20
93.759429800561634
30
0
40
1.0000000000000013
210
0
220
-0
230
1
100
AcDbArc
50
26.622746944347874
51
102.40308173159558
0
ARC
5
200
100
AcDbEntity
8
0
100
AcDbCircle
10
-16.149752406799891
20
95.999999999999957
30
0
40
3.9999999999999698
210
0
220
0
230
1
100
AcDbArc
50
206.62274694434865
51
270.00000000000023
0
LINE
5
201
100
AcDbEntity
8
0
100
AcDbLine
10
-16.149752406799877
20
92
30
0
11
-16.000000000000021
21
92
31
0
0
ARC
5
202
100
AcDbEntity
8
0
100
AcDbCircle
10
-16.000000000000032
20
96
30
0
40
4.0000000000000036
210
0
220
0
230
1
100
AcDbArc
50
-89.999999999999844
51
0
0
LINE
5
203
100
AcDbEntity
8
0
100
AcDbLine
10
-12.000000000000032
20
96
30
0
11
-12.000000000000025
21
100.30952098380291
31
0
0
ARC
5
204
100
AcDbEntity
8
0
100
AcDbCircle
10
-15.500000000000039
20
100.30952098380291
30
0
40
3.5000000000000142
210
0
220
0
230
1
100
AcDbArc
50
0
51
98.783970705285853
0
ARC
5
205
100
AcDbEntity
8
0
100
AcDbCircle
10
7.1054273576010019e-14
20
-4.4408920985006262e-15
30
0
40
105.00000000000001
210
0
220
0
230
1
100
AcDbArc
50
98.783970705286194
51
116.71611005959265
0
ARC
5
206
100
AcDbEntity
8
0
100
AcDbCircle
10
-45.856157675086209
20
91.110991671025232
30
0
40
3.0000000000000133
210
0
220
0
230
1
100
AcDbArc
50
116.71611005959259
51
225.00000000000017
0
LINE
5
207
100
AcDbEntity
8
0
100
AcDbLine
10
-47.977478018645826
20
88.989671327465601
30
0
11
-39.59797974644664
21
80.610173055266401
31
0
0
ARC
5
208
100
AcDbEntity
8
0
100
AcDbCircle
10
-41.719300090006257
20
78.488852711706755
30
0
40
2.9999999999999911
210
0
220
0
230
1
100
AcDbArc
50
-45.000000000000306
51
45.000000000000384
0
LINE
5
209
100
AcDbEntity
8
0
100
AcDbLine
10
-39.597979746446633
20
76.36753236814711
30
0
11
-76.367532368147124
21
39.597979746446661
31
0
0
ARC
5
210
100
AcDbEntity
8
0
100
AcDbCircle
10
-78.488852711706755
20
41.7193000900063
30
0
40
3.0000000000000067
210
0
220
0
230
1
100
AcDbArc
50
225.00000000000011
51
314.99999999999989
0
LINE
5
211
100
AcDbEntity
8
0
100
AcDbLine
10
-80.610173055266401
20
39.597979746446647
30
0
11
-88.989671327465601
21
47.97747801864584
31
0
0
ARC
5
212
100
AcDbEntity
8
0
100
AcDbCircle
10
-91.110991671025232
20
45.856157675086223
30
0
40
2.9999999999999756
210
0
220
-0
230
1
100
AcDbArc
50
44.999999999999808
51
153.28388994040787
0
ARC
5
213
100
AcDbEntity
8
0
100
AcDbCircle
10
7.1054273576010019e-14
20
-4.4408920985006262e-15
30
0
40
105.00000000000003
210
0
220
0
230
1
100
AcDbArc
50
153.28388994040742
51
191.71611005959255
0
ARC
5
214
100
AcDbEntity
8
0
100
AcDbCircle
10
-99.874906855387906
20
-20.712387130110905
30
0
40
3.0000000000000053
210
0
220
0
230
1
100
AcDbArc
50
191.71611005959215
51
299.99999999999943
0
LINE
5
215
100
AcDbEntity
8
0
100
AcDbLine
10
-98.374906855387934
20
-23.310463341464235
30
0
11
-88.112159321677211
21
-17.385263290251206
31
0
0
ARC
5
216
100
AcDbEntity
8
0
100
AcDbCircle
10
-86.612159321677197
20
-19.983339501604505
30
0
40
2.9999999999999796
210
0
220
-0
230
1
100
AcDbArc
50
29.999999999999844
51
120.00000000000041
0
LINE
5
217
100
AcDbEntity
8
0
100
AcDbLine
10
-84.014083110323895
20
-18.483339501604522
30
0
11
-58.014083110323924
21
-63.516660498395353
31
0
0
ARC
5
218
100
AcDbEntity
8
0
100
AcDbCircle
10
-60.612159321677261
20
-65.016660498395339
30
0
40
3.0000000000000213
210
0
220
0
230
1
100
AcDbArc
50
-59.99999999999978
51
29.999999999999545
0
LINE
5
219
100
AcDbEntity
8
0
100
AcDbLine
10
-59.11215932167724
20
-67.614736709748669
30
0
11
-69.37490685538792
21
-73.539936760961695
31
0
0
ARC
5
220
100
AcDbEntity
8
0
100
AcDbCircle
10
-67.874906855387906
20
-76.138012972315025
30
0
40
3.0000000000000049
210
0
220
0
230
1
100
AcDbArc
50
120.00000000000011
51
228.28388994040728
0
ARC
5
221
100
AcDbEntity
8
0
100
AcDbCircle
10
7.1054273576010019e-14
20
-4.4408920985006262e-15
30
0
40
105.00000000000003
210
0
220
0
230
1
100
AcDbArc
50
228.28388994040736
51
234.97755656680513
0
ARC
5
222
100
AcDbEntity
8
0
100
AcDbCircle
10
-59.685315441875026
20
-85.1684396980705
30
0
40
1.0000000000000018
210
0
220
0
230
1
100
AcDbArc
50
234.97755656680059
51
270
0
LINE
5
223
100
AcDbEntity
8
0
100
AcDbLine
10
-59.685315441875026
20
-86.1684396980705
30
0
11
-45.999999999999957
21
-86.168439698070486
31
0
0
ENDSEC
0
SECTION
2
OBJECTS
0
DICTIONARY
5
C
100
AcDbDictionary
3
ACAD_GROUP
350
D
3
ACAD_MLINESTYLE
350
17
0
DICTIONARY
5
D
100
AcDbDictionary
0
DICTIONARY
5
1A
330
C
100
AcDbDictionary
0
DICTIONARY
5
17
100
AcDbDictionary
0
ENDSEC
0
EOF
