G04 EAGLE Gerber RS-274X export*
G75*
%MOMM*%
%FSLAX34Y34*%
%LPD*%
%INBottom Copper*%
%IPPOS*%
%AMOC8*
5,1,8,0,0,1.08239X$1,22.5*%
G01*
%ADD10C,1.100000*%
%ADD11R,1.100000X1.100000*%
%ADD12C,0.381000*%
%ADD13C,0.609600*%
%ADD14C,0.654800*%

G36*
X3116Y-72394D02*
X3116Y-72394D01*
X3213Y-72384D01*
X3237Y-72374D01*
X3263Y-72370D01*
X3349Y-72324D01*
X3438Y-72284D01*
X3457Y-72267D01*
X3481Y-72254D01*
X3547Y-72184D01*
X3619Y-72118D01*
X3632Y-72095D01*
X3650Y-72076D01*
X3691Y-71988D01*
X3738Y-71902D01*
X3743Y-71877D01*
X3754Y-71853D01*
X3764Y-71756D01*
X3782Y-71660D01*
X3778Y-71634D01*
X3781Y-71609D01*
X3760Y-71514D01*
X3746Y-71417D01*
X3734Y-71394D01*
X3728Y-71368D01*
X3678Y-71284D01*
X3634Y-71198D01*
X3616Y-71180D01*
X3602Y-71157D01*
X3528Y-71094D01*
X3459Y-71026D01*
X3430Y-71010D01*
X3415Y-70997D01*
X3385Y-70985D01*
X3312Y-70945D01*
X2541Y-70626D01*
X1224Y-69746D01*
X104Y-68626D01*
X-39Y-68410D01*
X-104Y-68341D01*
X-163Y-68268D01*
X-187Y-68252D01*
X-207Y-68231D01*
X-290Y-68186D01*
X-370Y-68135D01*
X-398Y-68128D01*
X-424Y-68114D01*
X-517Y-68098D01*
X-608Y-68075D01*
X-637Y-68077D01*
X-666Y-68072D01*
X-759Y-68087D01*
X-853Y-68094D01*
X-880Y-68105D01*
X-909Y-68110D01*
X-993Y-68153D01*
X-1080Y-68190D01*
X-1108Y-68213D01*
X-1128Y-68223D01*
X-1150Y-68247D01*
X-1211Y-68295D01*
X-2371Y-69455D01*
X-4953Y-70525D01*
X-7747Y-70525D01*
X-10329Y-69455D01*
X-12162Y-67623D01*
X-12178Y-67611D01*
X-12190Y-67596D01*
X-12278Y-67540D01*
X-12361Y-67479D01*
X-12380Y-67473D01*
X-12397Y-67463D01*
X-12498Y-67437D01*
X-12597Y-67407D01*
X-12616Y-67407D01*
X-12636Y-67403D01*
X-12739Y-67411D01*
X-12842Y-67413D01*
X-12861Y-67420D01*
X-12881Y-67422D01*
X-12976Y-67462D01*
X-13073Y-67498D01*
X-13089Y-67510D01*
X-13107Y-67518D01*
X-13238Y-67623D01*
X-15071Y-69455D01*
X-17653Y-70525D01*
X-20447Y-70525D01*
X-23029Y-69455D01*
X-24862Y-67623D01*
X-24878Y-67611D01*
X-24890Y-67596D01*
X-24978Y-67540D01*
X-25061Y-67479D01*
X-25080Y-67473D01*
X-25097Y-67463D01*
X-25198Y-67437D01*
X-25297Y-67407D01*
X-25316Y-67407D01*
X-25336Y-67403D01*
X-25439Y-67411D01*
X-25542Y-67413D01*
X-25561Y-67420D01*
X-25581Y-67422D01*
X-25676Y-67462D01*
X-25773Y-67498D01*
X-25789Y-67510D01*
X-25807Y-67518D01*
X-25938Y-67623D01*
X-27771Y-69455D01*
X-30353Y-70525D01*
X-33147Y-70525D01*
X-35729Y-69455D01*
X-37705Y-67479D01*
X-38775Y-64897D01*
X-38775Y-62103D01*
X-37705Y-59521D01*
X-35657Y-57472D01*
X-35604Y-57398D01*
X-35544Y-57329D01*
X-35532Y-57299D01*
X-35513Y-57272D01*
X-35486Y-57186D01*
X-35452Y-57101D01*
X-35448Y-57060D01*
X-35441Y-57037D01*
X-35442Y-57005D01*
X-35434Y-56934D01*
X-35434Y-9247D01*
X-20798Y5389D01*
X-20745Y5463D01*
X-20685Y5532D01*
X-20673Y5562D01*
X-20654Y5588D01*
X-20627Y5675D01*
X-20593Y5760D01*
X-20589Y5801D01*
X-20582Y5824D01*
X-20583Y5856D01*
X-20575Y5927D01*
X-20575Y7228D01*
X-17896Y9907D01*
X-14108Y9907D01*
X-11429Y7228D01*
X-11429Y6858D01*
X-11426Y6838D01*
X-11428Y6819D01*
X-11406Y6717D01*
X-11390Y6615D01*
X-11380Y6598D01*
X-11376Y6578D01*
X-11323Y6489D01*
X-11274Y6398D01*
X-11260Y6384D01*
X-11250Y6367D01*
X-11171Y6300D01*
X-11096Y6228D01*
X-11078Y6220D01*
X-11063Y6207D01*
X-10967Y6168D01*
X-10873Y6125D01*
X-10853Y6123D01*
X-10835Y6115D01*
X-10668Y6097D01*
X14756Y6097D01*
X16988Y3865D01*
X48769Y-27916D01*
X48769Y-57989D01*
X48783Y-58079D01*
X48791Y-58170D01*
X48803Y-58199D01*
X48808Y-58231D01*
X48851Y-58312D01*
X48887Y-58396D01*
X48913Y-58428D01*
X48924Y-58449D01*
X48947Y-58471D01*
X48992Y-58527D01*
X49912Y-59447D01*
X49912Y-63235D01*
X47010Y-66137D01*
X46999Y-66153D01*
X46983Y-66165D01*
X46955Y-66209D01*
X46919Y-66247D01*
X46897Y-66294D01*
X46867Y-66336D01*
X46861Y-66355D01*
X46850Y-66372D01*
X46837Y-66423D01*
X46815Y-66470D01*
X46809Y-66522D01*
X46794Y-66572D01*
X46795Y-66591D01*
X46790Y-66611D01*
X46794Y-66663D01*
X46788Y-66714D01*
X46799Y-66766D01*
X46801Y-66817D01*
X46807Y-66836D01*
X46809Y-66856D01*
X46829Y-66904D01*
X46840Y-66955D01*
X46867Y-67000D01*
X46885Y-67048D01*
X46897Y-67064D01*
X46905Y-67082D01*
X46950Y-67138D01*
X46967Y-67166D01*
X46984Y-67181D01*
X47010Y-67213D01*
X47245Y-67448D01*
X47245Y-71285D01*
X47228Y-71309D01*
X47206Y-71378D01*
X47176Y-71443D01*
X47171Y-71495D01*
X47155Y-71544D01*
X47157Y-71616D01*
X47149Y-71687D01*
X47160Y-71738D01*
X47162Y-71790D01*
X47186Y-71858D01*
X47201Y-71928D01*
X47228Y-71973D01*
X47246Y-72021D01*
X47291Y-72077D01*
X47328Y-72139D01*
X47367Y-72173D01*
X47400Y-72213D01*
X47460Y-72252D01*
X47514Y-72299D01*
X47563Y-72318D01*
X47607Y-72346D01*
X47676Y-72364D01*
X47743Y-72391D01*
X47814Y-72399D01*
X47845Y-72407D01*
X47868Y-72405D01*
X47909Y-72409D01*
X50000Y-72409D01*
X50026Y-72405D01*
X50075Y-72406D01*
X51372Y-72278D01*
X51399Y-72271D01*
X51427Y-72270D01*
X51588Y-72224D01*
X53985Y-71231D01*
X54041Y-71196D01*
X54101Y-71171D01*
X54166Y-71119D01*
X54194Y-71101D01*
X54206Y-71086D01*
X54232Y-71066D01*
X56066Y-69232D01*
X56104Y-69179D01*
X56150Y-69132D01*
X56190Y-69059D01*
X56209Y-69032D01*
X56215Y-69013D01*
X56231Y-68985D01*
X57224Y-66588D01*
X57230Y-66561D01*
X57243Y-66536D01*
X57278Y-66372D01*
X57406Y-65075D01*
X57404Y-65048D01*
X57409Y-65000D01*
X57409Y-52539D01*
X57409Y-52538D01*
X57409Y-51221D01*
X57409Y-49762D01*
X57409Y-48905D01*
X58961Y-44693D01*
X61873Y-41276D01*
X62619Y-40856D01*
X63179Y-40541D01*
X63829Y-40175D01*
X63850Y-40159D01*
X63893Y-40136D01*
X66557Y-38273D01*
X66574Y-38256D01*
X66670Y-38177D01*
X68922Y-35832D01*
X68937Y-35810D01*
X68971Y-35776D01*
X69201Y-35484D01*
X81120Y-20360D01*
X81152Y-20302D01*
X81193Y-20249D01*
X81211Y-20195D01*
X81239Y-20145D01*
X81251Y-20079D01*
X81273Y-20016D01*
X81273Y-19959D01*
X81283Y-19903D01*
X81274Y-19837D01*
X81274Y-19770D01*
X81256Y-19716D01*
X81248Y-19659D01*
X81218Y-19600D01*
X81197Y-19537D01*
X81163Y-19491D01*
X81137Y-19440D01*
X81089Y-19393D01*
X81049Y-19340D01*
X81002Y-19307D01*
X80962Y-19267D01*
X80902Y-19238D01*
X80847Y-19200D01*
X80792Y-19185D01*
X80741Y-19160D01*
X80674Y-19151D01*
X80610Y-19133D01*
X80529Y-19132D01*
X80497Y-19128D01*
X80477Y-19132D01*
X80443Y-19132D01*
X72906Y-19924D01*
X64983Y-17350D01*
X58792Y-11776D01*
X55404Y-4165D01*
X55404Y4165D01*
X58792Y11776D01*
X64983Y17350D01*
X72906Y19924D01*
X80443Y19132D01*
X80509Y19136D01*
X80576Y19130D01*
X80631Y19143D01*
X80688Y19146D01*
X80750Y19171D01*
X80815Y19186D01*
X80863Y19216D01*
X80916Y19238D01*
X80967Y19281D01*
X81024Y19316D01*
X81060Y19360D01*
X81103Y19397D01*
X81138Y19455D01*
X81180Y19506D01*
X81201Y19559D01*
X81230Y19608D01*
X81244Y19674D01*
X81268Y19736D01*
X81270Y19793D01*
X81282Y19849D01*
X81275Y19915D01*
X81278Y19982D01*
X81262Y20036D01*
X81256Y20093D01*
X81227Y20154D01*
X81209Y20218D01*
X81166Y20286D01*
X81152Y20316D01*
X81138Y20331D01*
X81120Y20360D01*
X69830Y34686D01*
X68971Y35776D01*
X68955Y35790D01*
X68934Y35820D01*
X67240Y37664D01*
X67239Y37665D01*
X67238Y37667D01*
X67111Y37777D01*
X62995Y40606D01*
X62993Y40607D01*
X62992Y40608D01*
X62966Y40620D01*
X62943Y40638D01*
X62790Y40706D01*
X58020Y42187D01*
X58018Y42187D01*
X58017Y42188D01*
X57852Y42219D01*
X55355Y42407D01*
X55334Y42405D01*
X55298Y42409D01*
X54864Y42409D01*
X53909Y42409D01*
X-53909Y42409D01*
X-55147Y42409D01*
X-55298Y42409D01*
X-55319Y42406D01*
X-55355Y42407D01*
X-57852Y42219D01*
X-57854Y42218D01*
X-57856Y42218D01*
X-58020Y42187D01*
X-62790Y40706D01*
X-62817Y40692D01*
X-62847Y40685D01*
X-62995Y40606D01*
X-67111Y37777D01*
X-67112Y37775D01*
X-67114Y37775D01*
X-67240Y37664D01*
X-68934Y35820D01*
X-68945Y35802D01*
X-68971Y35776D01*
X-68997Y35742D01*
X-69830Y34686D01*
X-81415Y19986D01*
X-81426Y19966D01*
X-81442Y19949D01*
X-81485Y19859D01*
X-81534Y19771D01*
X-81538Y19748D01*
X-81548Y19727D01*
X-81560Y19628D01*
X-81578Y19529D01*
X-81575Y19506D01*
X-81578Y19483D01*
X-81557Y19385D01*
X-81543Y19285D01*
X-81533Y19265D01*
X-81528Y19242D01*
X-81477Y19155D01*
X-81432Y19066D01*
X-81416Y19050D01*
X-81404Y19030D01*
X-81328Y18964D01*
X-81257Y18893D01*
X-81236Y18883D01*
X-81219Y18868D01*
X-81126Y18829D01*
X-81036Y18785D01*
X-81013Y18783D01*
X-80991Y18774D01*
X-80891Y18767D01*
X-80792Y18754D01*
X-80769Y18758D01*
X-80746Y18757D01*
X-80582Y18791D01*
X-77094Y19924D01*
X-68809Y19053D01*
X-61595Y14888D01*
X-56698Y8149D01*
X-54966Y0D01*
X-56698Y-8148D01*
X-61595Y-14888D01*
X-68809Y-19053D01*
X-77094Y-19924D01*
X-80582Y-18791D01*
X-80605Y-18787D01*
X-80626Y-18778D01*
X-80726Y-18769D01*
X-80825Y-18753D01*
X-80848Y-18757D01*
X-80871Y-18755D01*
X-80968Y-18778D01*
X-81067Y-18796D01*
X-81088Y-18807D01*
X-81110Y-18812D01*
X-81195Y-18865D01*
X-81283Y-18913D01*
X-81299Y-18930D01*
X-81319Y-18942D01*
X-81383Y-19020D01*
X-81451Y-19093D01*
X-81460Y-19114D01*
X-81475Y-19132D01*
X-81511Y-19226D01*
X-81552Y-19317D01*
X-81555Y-19340D01*
X-81563Y-19362D01*
X-81567Y-19462D01*
X-81577Y-19562D01*
X-81572Y-19584D01*
X-81573Y-19607D01*
X-81544Y-19704D01*
X-81522Y-19802D01*
X-81510Y-19821D01*
X-81504Y-19844D01*
X-81415Y-19986D01*
X-69130Y-35574D01*
X-68971Y-35776D01*
X-68951Y-35794D01*
X-68922Y-35832D01*
X-66670Y-38177D01*
X-66650Y-38191D01*
X-66557Y-38273D01*
X-63893Y-40136D01*
X-63890Y-40137D01*
X-63887Y-40139D01*
X-63857Y-40156D01*
X-63829Y-40175D01*
X-63282Y-40483D01*
X-62620Y-40856D01*
X-62619Y-40856D01*
X-61873Y-41275D01*
X-58961Y-44693D01*
X-57409Y-48905D01*
X-57409Y-49762D01*
X-57409Y-51157D01*
X-57409Y-52538D01*
X-57409Y-52539D01*
X-57409Y-65000D01*
X-57405Y-65026D01*
X-57406Y-65075D01*
X-57278Y-66372D01*
X-57271Y-66399D01*
X-57270Y-66427D01*
X-57224Y-66588D01*
X-56231Y-68985D01*
X-56196Y-69040D01*
X-56171Y-69101D01*
X-56119Y-69166D01*
X-56101Y-69194D01*
X-56086Y-69206D01*
X-56066Y-69232D01*
X-54232Y-71066D01*
X-54179Y-71104D01*
X-54132Y-71150D01*
X-54059Y-71190D01*
X-54032Y-71209D01*
X-54013Y-71215D01*
X-53985Y-71231D01*
X-51588Y-72224D01*
X-51561Y-72230D01*
X-51536Y-72243D01*
X-51372Y-72278D01*
X-50075Y-72406D01*
X-50048Y-72404D01*
X-50000Y-72409D01*
X3020Y-72409D01*
X3116Y-72394D01*
G37*
G36*
X7132Y-63496D02*
X7132Y-63496D01*
X7151Y-63498D01*
X7253Y-63476D01*
X7355Y-63459D01*
X7372Y-63450D01*
X7392Y-63446D01*
X7481Y-63393D01*
X7572Y-63344D01*
X7586Y-63330D01*
X7603Y-63320D01*
X7670Y-63241D01*
X7741Y-63166D01*
X7750Y-63148D01*
X7763Y-63133D01*
X7802Y-63037D01*
X7845Y-62943D01*
X7847Y-62923D01*
X7855Y-62905D01*
X7873Y-62738D01*
X7873Y-55605D01*
X8695Y-55768D01*
X10159Y-56374D01*
X11476Y-57254D01*
X12596Y-58374D01*
X12739Y-58590D01*
X12804Y-58659D01*
X12863Y-58732D01*
X12887Y-58748D01*
X12907Y-58769D01*
X12990Y-58814D01*
X13070Y-58865D01*
X13098Y-58872D01*
X13124Y-58886D01*
X13217Y-58902D01*
X13308Y-58925D01*
X13337Y-58923D01*
X13366Y-58928D01*
X13459Y-58913D01*
X13553Y-58906D01*
X13580Y-58895D01*
X13609Y-58890D01*
X13693Y-58847D01*
X13780Y-58810D01*
X13808Y-58787D01*
X13828Y-58777D01*
X13850Y-58753D01*
X13911Y-58705D01*
X15071Y-57545D01*
X17436Y-56565D01*
X17536Y-56503D01*
X17636Y-56443D01*
X17640Y-56439D01*
X17645Y-56435D01*
X17720Y-56346D01*
X17796Y-56256D01*
X17798Y-56251D01*
X17802Y-56246D01*
X17844Y-56138D01*
X17888Y-56028D01*
X17889Y-56021D01*
X17890Y-56016D01*
X17891Y-55998D01*
X17906Y-55862D01*
X17906Y-35917D01*
X20350Y-33473D01*
X20403Y-33399D01*
X20463Y-33330D01*
X20475Y-33300D01*
X20494Y-33274D01*
X20521Y-33187D01*
X20555Y-33102D01*
X20559Y-33061D01*
X20566Y-33038D01*
X20565Y-33006D01*
X20573Y-32935D01*
X20573Y-23072D01*
X20559Y-22982D01*
X20551Y-22891D01*
X20539Y-22861D01*
X20534Y-22829D01*
X20491Y-22749D01*
X20455Y-22665D01*
X20429Y-22633D01*
X20418Y-22612D01*
X20395Y-22590D01*
X20350Y-22534D01*
X15947Y-18131D01*
X15873Y-18078D01*
X15804Y-18018D01*
X15774Y-18006D01*
X15748Y-17987D01*
X15661Y-17960D01*
X15576Y-17926D01*
X15535Y-17922D01*
X15512Y-17915D01*
X15480Y-17916D01*
X15409Y-17908D01*
X14108Y-17908D01*
X11429Y-15229D01*
X11429Y-13928D01*
X11415Y-13838D01*
X11407Y-13747D01*
X11395Y-13717D01*
X11390Y-13685D01*
X11347Y-13605D01*
X11311Y-13521D01*
X11285Y-13489D01*
X11274Y-13468D01*
X11251Y-13446D01*
X11206Y-13390D01*
X4136Y-6320D01*
X4062Y-6267D01*
X3993Y-6207D01*
X3963Y-6195D01*
X3937Y-6176D01*
X3850Y-6149D01*
X3765Y-6115D01*
X3724Y-6111D01*
X3701Y-6104D01*
X3669Y-6105D01*
X3598Y-6097D01*
X-14266Y-6097D01*
X-14356Y-6111D01*
X-14447Y-6119D01*
X-14477Y-6131D01*
X-14509Y-6136D01*
X-14589Y-6179D01*
X-14673Y-6215D01*
X-14705Y-6241D01*
X-14726Y-6252D01*
X-14748Y-6275D01*
X-14804Y-6320D01*
X-18614Y-10130D01*
X-18656Y-10188D01*
X-18706Y-10240D01*
X-18728Y-10287D01*
X-18758Y-10329D01*
X-18779Y-10398D01*
X-18809Y-10463D01*
X-18815Y-10515D01*
X-18830Y-10565D01*
X-18828Y-10636D01*
X-18836Y-10707D01*
X-18825Y-10758D01*
X-18824Y-10810D01*
X-18799Y-10878D01*
X-18784Y-10948D01*
X-18757Y-10993D01*
X-18739Y-11041D01*
X-18695Y-11097D01*
X-18658Y-11159D01*
X-18618Y-11193D01*
X-18586Y-11233D01*
X-18525Y-11272D01*
X-18471Y-11319D01*
X-18423Y-11338D01*
X-18379Y-11366D01*
X-18309Y-11384D01*
X-18243Y-11411D01*
X-18171Y-11419D01*
X-18140Y-11427D01*
X-18117Y-11425D01*
X-18076Y-11429D01*
X-14108Y-11429D01*
X-11429Y-14108D01*
X-11429Y-17896D01*
X-12349Y-18816D01*
X-12402Y-18890D01*
X-12462Y-18960D01*
X-12474Y-18990D01*
X-12493Y-19016D01*
X-12520Y-19103D01*
X-12554Y-19188D01*
X-12558Y-19229D01*
X-12565Y-19251D01*
X-12564Y-19283D01*
X-12572Y-19354D01*
X-12572Y-36092D01*
X-15016Y-38536D01*
X-15069Y-38610D01*
X-15129Y-38679D01*
X-15141Y-38709D01*
X-15160Y-38735D01*
X-15187Y-38822D01*
X-15221Y-38907D01*
X-15225Y-38948D01*
X-15232Y-38971D01*
X-15231Y-39003D01*
X-15239Y-39074D01*
X-15239Y-57061D01*
X-15225Y-57151D01*
X-15217Y-57242D01*
X-15205Y-57272D01*
X-15200Y-57304D01*
X-15157Y-57384D01*
X-15121Y-57468D01*
X-15095Y-57500D01*
X-15084Y-57521D01*
X-15061Y-57543D01*
X-15016Y-57599D01*
X-13238Y-59377D01*
X-13222Y-59389D01*
X-13210Y-59404D01*
X-13123Y-59460D01*
X-13039Y-59521D01*
X-13019Y-59527D01*
X-13003Y-59537D01*
X-12902Y-59563D01*
X-12803Y-59593D01*
X-12784Y-59593D01*
X-12764Y-59597D01*
X-12661Y-59589D01*
X-12558Y-59587D01*
X-12539Y-59580D01*
X-12519Y-59578D01*
X-12424Y-59538D01*
X-12327Y-59502D01*
X-12311Y-59490D01*
X-12293Y-59482D01*
X-12162Y-59377D01*
X-10329Y-57545D01*
X-9234Y-57091D01*
X-9134Y-57029D01*
X-9034Y-56969D01*
X-9030Y-56965D01*
X-9025Y-56961D01*
X-8950Y-56871D01*
X-8874Y-56783D01*
X-8872Y-56777D01*
X-8868Y-56772D01*
X-8826Y-56663D01*
X-8782Y-56554D01*
X-8781Y-56547D01*
X-8780Y-56542D01*
X-8779Y-56524D01*
X-8764Y-56388D01*
X-8764Y-30022D01*
X-8778Y-29932D01*
X-8786Y-29841D01*
X-8798Y-29812D01*
X-8803Y-29780D01*
X-8846Y-29699D01*
X-8882Y-29615D01*
X-8908Y-29583D01*
X-8919Y-29562D01*
X-8942Y-29540D01*
X-8987Y-29484D01*
X-9907Y-28564D01*
X-9907Y-24776D01*
X-7228Y-22097D01*
X-3440Y-22097D01*
X-761Y-24776D01*
X-761Y-28564D01*
X-1681Y-29484D01*
X-1734Y-29558D01*
X-1794Y-29628D01*
X-1806Y-29658D01*
X-1825Y-29684D01*
X-1852Y-29771D01*
X-1886Y-29856D01*
X-1890Y-29897D01*
X-1897Y-29919D01*
X-1896Y-29951D01*
X-1904Y-30022D01*
X-1904Y-57696D01*
X-1890Y-57786D01*
X-1882Y-57877D01*
X-1870Y-57907D01*
X-1865Y-57939D01*
X-1822Y-58019D01*
X-1786Y-58103D01*
X-1760Y-58135D01*
X-1749Y-58156D01*
X-1726Y-58178D01*
X-1681Y-58234D01*
X-1211Y-58705D01*
X-1134Y-58760D01*
X-1062Y-58821D01*
X-1035Y-58831D01*
X-1011Y-58848D01*
X-921Y-58876D01*
X-833Y-58911D01*
X-804Y-58912D01*
X-776Y-58921D01*
X-682Y-58918D01*
X-587Y-58923D01*
X-559Y-58915D01*
X-530Y-58914D01*
X-442Y-58882D01*
X-351Y-58856D01*
X-326Y-58840D01*
X-299Y-58830D01*
X-225Y-58771D01*
X-147Y-58718D01*
X-124Y-58690D01*
X-107Y-58676D01*
X-89Y-58649D01*
X-39Y-58590D01*
X104Y-58374D01*
X1224Y-57254D01*
X2541Y-56374D01*
X4005Y-55768D01*
X4827Y-55605D01*
X4827Y-62738D01*
X4830Y-62758D01*
X4828Y-62777D01*
X4850Y-62879D01*
X4867Y-62981D01*
X4876Y-62998D01*
X4880Y-63018D01*
X4933Y-63107D01*
X4982Y-63198D01*
X4996Y-63212D01*
X5006Y-63229D01*
X5085Y-63296D01*
X5160Y-63367D01*
X5178Y-63376D01*
X5193Y-63389D01*
X5289Y-63428D01*
X5383Y-63471D01*
X5403Y-63473D01*
X5421Y-63481D01*
X5588Y-63499D01*
X7112Y-63499D01*
X7132Y-63496D01*
G37*
%LPC*%
G36*
X-47233Y-65914D02*
X-47233Y-65914D01*
X-49912Y-63235D01*
X-49912Y-59447D01*
X-48992Y-58527D01*
X-48939Y-58453D01*
X-48879Y-58383D01*
X-48867Y-58353D01*
X-48848Y-58327D01*
X-48821Y-58240D01*
X-48787Y-58155D01*
X-48783Y-58114D01*
X-48776Y-58092D01*
X-48777Y-58060D01*
X-48769Y-57989D01*
X-48769Y-25739D01*
X-48783Y-25649D01*
X-48791Y-25558D01*
X-48803Y-25528D01*
X-48808Y-25496D01*
X-48851Y-25416D01*
X-48887Y-25332D01*
X-48913Y-25299D01*
X-48924Y-25279D01*
X-48947Y-25257D01*
X-48992Y-25201D01*
X-50728Y-23465D01*
X-50802Y-23412D01*
X-50871Y-23352D01*
X-50901Y-23340D01*
X-50927Y-23321D01*
X-51014Y-23294D01*
X-51099Y-23260D01*
X-51140Y-23256D01*
X-51162Y-23249D01*
X-51195Y-23250D01*
X-51266Y-23242D01*
X-52567Y-23242D01*
X-55246Y-20563D01*
X-55246Y-16775D01*
X-52567Y-14096D01*
X-48779Y-14096D01*
X-46100Y-16775D01*
X-46100Y-18076D01*
X-46086Y-18166D01*
X-46078Y-18257D01*
X-46066Y-18287D01*
X-46061Y-18319D01*
X-46018Y-18399D01*
X-45982Y-18483D01*
X-45956Y-18515D01*
X-45945Y-18536D01*
X-45922Y-18558D01*
X-45877Y-18614D01*
X-41909Y-22582D01*
X-41909Y-57989D01*
X-41895Y-58079D01*
X-41887Y-58170D01*
X-41875Y-58199D01*
X-41870Y-58231D01*
X-41827Y-58312D01*
X-41791Y-58396D01*
X-41765Y-58428D01*
X-41754Y-58449D01*
X-41731Y-58471D01*
X-41686Y-58527D01*
X-40766Y-59447D01*
X-40766Y-63235D01*
X-43445Y-65914D01*
X-47233Y-65914D01*
G37*
%LPD*%
D10*
X6350Y-63500D03*
D11*
X31750Y-63500D03*
D10*
X-6350Y-63500D03*
X-19050Y-63500D03*
X-31750Y-63500D03*
X19050Y-63500D03*
D12*
X8001Y-61341D02*
X8001Y-40005D01*
X16002Y-32004D01*
X8001Y-61341D02*
X6350Y-63500D01*
X50673Y-24003D02*
X50673Y10668D01*
X0Y-18669D02*
X-8001Y-18669D01*
X0Y-18669D02*
X13335Y-32004D01*
X16002Y-32004D01*
D13*
X16002Y-32004D03*
X50673Y10668D03*
X50673Y-24003D03*
X-8001Y-18669D03*
D14*
X60000Y30000D03*
X-60000Y30000D03*
X-25000Y35000D03*
X25000Y35000D03*
D12*
X-32004Y-10668D02*
X-32004Y-61341D01*
X-32004Y-10668D02*
X-16002Y5334D01*
X-32004Y-61341D02*
X-31750Y-63500D01*
X45339Y-61341D02*
X45339Y-29337D01*
X13335Y2667D01*
X-16002Y2667D01*
X-16002Y5334D01*
D13*
X-16002Y5334D03*
X45339Y-61341D03*
D12*
X-18669Y-61341D02*
X-18669Y-37338D01*
X-16002Y-34671D01*
X-16002Y-16002D01*
X-18669Y-61341D02*
X-19050Y-63500D01*
X-45339Y-61341D02*
X-45339Y-24003D01*
X-50673Y-18669D01*
D13*
X-16002Y-16002D03*
X-45339Y-61341D03*
X-50673Y-18669D03*
D12*
X32004Y-64008D02*
X37338Y-64008D01*
X42672Y-69342D01*
X32004Y-64008D02*
X31750Y-63500D01*
X32004Y-61341D02*
X32004Y-26670D01*
X32004Y-61341D02*
X31750Y-63500D01*
D13*
X42672Y-69342D03*
X32004Y-26670D03*
D12*
X21336Y-37338D02*
X21336Y-61341D01*
X21336Y-37338D02*
X24003Y-34671D01*
X24003Y-21336D01*
X16002Y-13335D01*
X21336Y-61341D02*
X19050Y-63500D01*
X-24003Y-32004D02*
X-24003Y-10668D01*
X-16002Y-2667D01*
X5334Y-2667D01*
X16002Y-13335D01*
D13*
X16002Y-13335D03*
X-24003Y-32004D03*
D12*
X-5334Y-26670D02*
X-5334Y-61341D01*
X-6350Y-63500D01*
D13*
X-5334Y-26670D03*
M02*
