G04 EAGLE Gerber RS-274X export*
G75*
%MOMM*%
%FSLAX34Y34*%
%LPD*%
%IN*%
%IPPOS*%
%AMOC8*
5,1,8,0,0,1.08239X$1,22.5*%
G01*
%ADD10C,0.254000*%


D10*
X-90708Y-12380D02*
X-71006Y-37380D01*
X-69867Y-38702D01*
X-68617Y-39919D01*
X-67266Y-41024D01*
X-65824Y-42006D01*
X-65099Y-42434D01*
X-64358Y-42894D01*
X-63660Y-43417D01*
X-63010Y-43999D01*
X-62413Y-44636D01*
X-61874Y-45322D01*
X-61397Y-46052D01*
X-60986Y-46821D01*
X-60643Y-47624D01*
X-60371Y-48453D01*
X-60172Y-49302D01*
X-60049Y-50166D01*
X-60001Y-51037D01*
X-60000Y-51150D01*
X-60000Y-65000D01*
X-59962Y-65872D01*
X-59848Y-66736D01*
X-59659Y-67588D01*
X-59397Y-68420D01*
X-59063Y-69226D01*
X-58660Y-70000D01*
X-58192Y-70736D01*
X-57660Y-71428D01*
X-57071Y-72071D01*
X-56428Y-72660D01*
X-55736Y-73192D01*
X-55000Y-73660D01*
X-54226Y-74063D01*
X-53420Y-74397D01*
X-52588Y-74659D01*
X-51736Y-74848D01*
X-50872Y-74962D01*
X-50000Y-75000D01*
X50000Y-75000D01*
X50872Y-74962D01*
X51736Y-74848D01*
X52588Y-74659D01*
X53420Y-74397D01*
X54226Y-74063D01*
X55000Y-73660D01*
X55736Y-73192D01*
X56428Y-72660D01*
X57071Y-72071D01*
X57660Y-71428D01*
X58192Y-70736D01*
X58660Y-70000D01*
X59063Y-69226D01*
X59397Y-68420D01*
X59659Y-67588D01*
X59848Y-66736D01*
X59962Y-65872D01*
X60000Y-65000D01*
X60000Y-51150D01*
X60038Y-50279D01*
X60152Y-49414D01*
X60341Y-48562D01*
X60603Y-47730D01*
X60937Y-46924D01*
X61340Y-46150D01*
X61809Y-45414D01*
X62340Y-44722D01*
X62929Y-44079D01*
X63573Y-43490D01*
X64265Y-42958D01*
X65001Y-42490D01*
X65099Y-42434D01*
X66581Y-41513D01*
X67978Y-40466D01*
X69278Y-39302D01*
X70471Y-38029D01*
X71006Y-37380D01*
X90708Y-12380D01*
X91727Y-10963D01*
X92619Y-9464D01*
X93377Y-7892D01*
X93995Y-6260D01*
X94468Y-4581D01*
X94793Y-2867D01*
X94968Y-1130D01*
X94990Y614D01*
X94861Y2354D01*
X94580Y4076D01*
X94150Y5768D01*
X93575Y7415D01*
X92858Y9005D01*
X92005Y10528D01*
X91023Y11970D01*
X90708Y12380D01*
X71006Y37380D01*
X69867Y38702D01*
X68617Y39919D01*
X67266Y41023D01*
X65824Y42005D01*
X64302Y42858D01*
X62712Y43575D01*
X61065Y44151D01*
X59374Y44580D01*
X57652Y44861D01*
X55912Y44991D01*
X55298Y45000D01*
X-55298Y45000D01*
X-57041Y44924D01*
X-58770Y44696D01*
X-60474Y44319D01*
X-62138Y43794D01*
X-63750Y43126D01*
X-65297Y42321D01*
X-66769Y41383D01*
X-68153Y40321D01*
X-69439Y39143D01*
X-70618Y37856D01*
X-71006Y37380D01*
X-90708Y12380D01*
X-91727Y10963D01*
X-92619Y9464D01*
X-93377Y7892D01*
X-93995Y6260D01*
X-94468Y4581D01*
X-94793Y2867D01*
X-94968Y1130D01*
X-94990Y-614D01*
X-94861Y-2354D01*
X-94580Y-4076D01*
X-94150Y-5768D01*
X-93575Y-7415D01*
X-92858Y-9005D01*
X-92005Y-10528D01*
X-91023Y-11970D01*
X-90708Y-12380D01*
X86000Y-432D02*
X86000Y432D01*
X85932Y1294D01*
X85797Y2148D01*
X85595Y2988D01*
X85328Y3810D01*
X84997Y4609D01*
X84605Y5379D01*
X84153Y6116D01*
X83645Y6815D01*
X83084Y7473D01*
X82473Y8084D01*
X81815Y8645D01*
X81116Y9153D01*
X80379Y9605D01*
X79609Y9997D01*
X78810Y10328D01*
X77988Y10595D01*
X77148Y10797D01*
X76294Y10932D01*
X75432Y11000D01*
X74568Y11000D01*
X73706Y10932D01*
X72852Y10797D01*
X72012Y10595D01*
X71190Y10328D01*
X70391Y9997D01*
X69621Y9605D01*
X68884Y9153D01*
X68185Y8645D01*
X67527Y8084D01*
X66916Y7473D01*
X66355Y6815D01*
X65847Y6116D01*
X65395Y5379D01*
X65003Y4609D01*
X64672Y3810D01*
X64405Y2988D01*
X64203Y2148D01*
X64068Y1294D01*
X64000Y432D01*
X64000Y-432D01*
X64068Y-1294D01*
X64203Y-2148D01*
X64405Y-2988D01*
X64672Y-3810D01*
X65003Y-4609D01*
X65395Y-5379D01*
X65847Y-6116D01*
X66355Y-6815D01*
X66916Y-7473D01*
X67527Y-8084D01*
X68185Y-8645D01*
X68884Y-9153D01*
X69621Y-9605D01*
X70391Y-9997D01*
X71190Y-10328D01*
X72012Y-10595D01*
X72852Y-10797D01*
X73706Y-10932D01*
X74568Y-11000D01*
X75432Y-11000D01*
X76294Y-10932D01*
X77148Y-10797D01*
X77988Y-10595D01*
X78810Y-10328D01*
X79609Y-9997D01*
X80379Y-9605D01*
X81116Y-9153D01*
X81815Y-8645D01*
X82473Y-8084D01*
X83084Y-7473D01*
X83645Y-6815D01*
X84153Y-6116D01*
X84605Y-5379D01*
X84997Y-4609D01*
X85328Y-3810D01*
X85595Y-2988D01*
X85797Y-2148D01*
X85932Y-1294D01*
X86000Y-432D01*
X-64000Y-432D02*
X-64000Y432D01*
X-64068Y1294D01*
X-64203Y2148D01*
X-64405Y2988D01*
X-64672Y3810D01*
X-65003Y4609D01*
X-65395Y5379D01*
X-65847Y6116D01*
X-66355Y6815D01*
X-66916Y7473D01*
X-67527Y8084D01*
X-68185Y8645D01*
X-68884Y9153D01*
X-69621Y9605D01*
X-70391Y9997D01*
X-71190Y10328D01*
X-72012Y10595D01*
X-72852Y10797D01*
X-73706Y10932D01*
X-74568Y11000D01*
X-75432Y11000D01*
X-76294Y10932D01*
X-77148Y10797D01*
X-77988Y10595D01*
X-78810Y10328D01*
X-79609Y9997D01*
X-80379Y9605D01*
X-81116Y9153D01*
X-81815Y8645D01*
X-82473Y8084D01*
X-83084Y7473D01*
X-83645Y6815D01*
X-84153Y6116D01*
X-84605Y5379D01*
X-84997Y4609D01*
X-85328Y3810D01*
X-85595Y2988D01*
X-85797Y2148D01*
X-85932Y1294D01*
X-86000Y432D01*
X-86000Y-432D01*
X-85932Y-1294D01*
X-85797Y-2148D01*
X-85595Y-2988D01*
X-85328Y-3810D01*
X-84997Y-4609D01*
X-84605Y-5379D01*
X-84153Y-6116D01*
X-83645Y-6815D01*
X-83084Y-7473D01*
X-82473Y-8084D01*
X-81815Y-8645D01*
X-81116Y-9153D01*
X-80379Y-9605D01*
X-79609Y-9997D01*
X-78810Y-10328D01*
X-77988Y-10595D01*
X-77148Y-10797D01*
X-76294Y-10932D01*
X-75432Y-11000D01*
X-74568Y-11000D01*
X-73706Y-10932D01*
X-72852Y-10797D01*
X-72012Y-10595D01*
X-71190Y-10328D01*
X-70391Y-9997D01*
X-69621Y-9605D01*
X-68884Y-9153D01*
X-68185Y-8645D01*
X-67527Y-8084D01*
X-66916Y-7473D01*
X-66355Y-6815D01*
X-65847Y-6116D01*
X-65395Y-5379D01*
X-65003Y-4609D01*
X-64672Y-3810D01*
X-64405Y-2988D01*
X-64203Y-2148D01*
X-64068Y-1294D01*
X-64000Y-432D01*
M02*
