G04 EAGLE Gerber RS-274X export*
G75*
%MOMM*%
%FSLAX34Y34*%
%LPD*%
%INSilkscreen Top*%
%IPPOS*%
%AMOC8*
5,1,8,0,0,1.08239X$1,22.5*%
G01*
%ADD10C,0.101600*%
%ADD11C,0.203200*%
%ADD12R,1.519900X0.490200*%


D10*
X-49597Y40192D02*
X-49597Y31104D01*
X-49598Y31104D02*
X-49600Y31005D01*
X-49606Y30905D01*
X-49615Y30806D01*
X-49628Y30708D01*
X-49645Y30610D01*
X-49666Y30512D01*
X-49691Y30416D01*
X-49719Y30321D01*
X-49751Y30227D01*
X-49786Y30134D01*
X-49825Y30042D01*
X-49868Y29952D01*
X-49913Y29864D01*
X-49963Y29777D01*
X-50015Y29693D01*
X-50071Y29610D01*
X-50129Y29530D01*
X-50191Y29452D01*
X-50256Y29377D01*
X-50324Y29304D01*
X-50394Y29234D01*
X-50467Y29166D01*
X-50542Y29101D01*
X-50620Y29039D01*
X-50700Y28981D01*
X-50783Y28925D01*
X-50867Y28873D01*
X-50954Y28823D01*
X-51042Y28778D01*
X-51132Y28735D01*
X-51224Y28696D01*
X-51317Y28661D01*
X-51411Y28629D01*
X-51506Y28601D01*
X-51602Y28576D01*
X-51700Y28555D01*
X-51798Y28538D01*
X-51896Y28525D01*
X-51995Y28516D01*
X-52095Y28510D01*
X-52194Y28508D01*
X-53492Y28508D01*
X-43920Y28508D02*
X-43920Y40192D01*
X-43920Y28508D02*
X-38727Y28508D01*
X-31855Y28508D02*
X-29258Y28508D01*
X-31855Y28508D02*
X-31954Y28510D01*
X-32054Y28516D01*
X-32153Y28525D01*
X-32251Y28538D01*
X-32349Y28555D01*
X-32447Y28576D01*
X-32543Y28601D01*
X-32638Y28629D01*
X-32732Y28661D01*
X-32825Y28696D01*
X-32917Y28735D01*
X-33007Y28778D01*
X-33095Y28823D01*
X-33182Y28873D01*
X-33266Y28925D01*
X-33349Y28981D01*
X-33429Y29039D01*
X-33507Y29101D01*
X-33582Y29166D01*
X-33655Y29234D01*
X-33725Y29304D01*
X-33793Y29377D01*
X-33858Y29452D01*
X-33920Y29530D01*
X-33978Y29610D01*
X-34034Y29693D01*
X-34086Y29777D01*
X-34136Y29864D01*
X-34181Y29952D01*
X-34224Y30042D01*
X-34263Y30134D01*
X-34298Y30227D01*
X-34330Y30321D01*
X-34358Y30416D01*
X-34383Y30512D01*
X-34404Y30610D01*
X-34421Y30708D01*
X-34434Y30806D01*
X-34443Y30905D01*
X-34449Y31005D01*
X-34451Y31104D01*
X-34451Y37596D01*
X-34449Y37695D01*
X-34443Y37795D01*
X-34434Y37894D01*
X-34421Y37992D01*
X-34404Y38090D01*
X-34383Y38188D01*
X-34358Y38284D01*
X-34330Y38379D01*
X-34298Y38473D01*
X-34263Y38566D01*
X-34224Y38658D01*
X-34181Y38748D01*
X-34136Y38836D01*
X-34086Y38923D01*
X-34034Y39007D01*
X-33978Y39090D01*
X-33920Y39170D01*
X-33858Y39248D01*
X-33793Y39323D01*
X-33725Y39396D01*
X-33655Y39466D01*
X-33582Y39534D01*
X-33507Y39599D01*
X-33429Y39661D01*
X-33349Y39719D01*
X-33266Y39775D01*
X-33182Y39827D01*
X-33095Y39877D01*
X-33007Y39922D01*
X-32917Y39965D01*
X-32825Y40004D01*
X-32732Y40039D01*
X-32638Y40071D01*
X-32543Y40099D01*
X-32447Y40124D01*
X-32349Y40145D01*
X-32251Y40162D01*
X-32153Y40175D01*
X-32054Y40184D01*
X-31954Y40190D01*
X-31855Y40192D01*
X-29258Y40192D01*
X-22165Y40192D02*
X-22165Y31104D01*
X-22166Y31104D02*
X-22168Y31005D01*
X-22174Y30905D01*
X-22183Y30806D01*
X-22196Y30708D01*
X-22213Y30610D01*
X-22234Y30512D01*
X-22259Y30416D01*
X-22287Y30321D01*
X-22319Y30227D01*
X-22354Y30134D01*
X-22393Y30042D01*
X-22436Y29952D01*
X-22481Y29864D01*
X-22531Y29777D01*
X-22583Y29693D01*
X-22639Y29610D01*
X-22697Y29530D01*
X-22759Y29452D01*
X-22824Y29377D01*
X-22892Y29304D01*
X-22962Y29234D01*
X-23035Y29166D01*
X-23110Y29101D01*
X-23188Y29039D01*
X-23268Y28981D01*
X-23351Y28925D01*
X-23435Y28873D01*
X-23522Y28823D01*
X-23610Y28778D01*
X-23700Y28735D01*
X-23792Y28696D01*
X-23885Y28661D01*
X-23979Y28629D01*
X-24074Y28601D01*
X-24170Y28576D01*
X-24268Y28555D01*
X-24366Y28538D01*
X-24464Y28525D01*
X-24563Y28516D01*
X-24663Y28510D01*
X-24762Y28508D01*
X-26060Y28508D01*
X-16488Y28508D02*
X-16488Y40192D01*
X-16488Y28508D02*
X-11295Y28508D01*
X-4423Y28508D02*
X-1826Y28508D01*
X-4423Y28508D02*
X-4522Y28510D01*
X-4622Y28516D01*
X-4721Y28525D01*
X-4819Y28538D01*
X-4917Y28555D01*
X-5015Y28576D01*
X-5111Y28601D01*
X-5206Y28629D01*
X-5300Y28661D01*
X-5393Y28696D01*
X-5485Y28735D01*
X-5575Y28778D01*
X-5663Y28823D01*
X-5750Y28873D01*
X-5834Y28925D01*
X-5917Y28981D01*
X-5997Y29039D01*
X-6075Y29101D01*
X-6150Y29166D01*
X-6223Y29234D01*
X-6293Y29304D01*
X-6361Y29377D01*
X-6426Y29452D01*
X-6488Y29530D01*
X-6546Y29610D01*
X-6602Y29693D01*
X-6654Y29777D01*
X-6704Y29864D01*
X-6749Y29952D01*
X-6792Y30042D01*
X-6831Y30134D01*
X-6866Y30227D01*
X-6898Y30321D01*
X-6926Y30416D01*
X-6951Y30512D01*
X-6972Y30610D01*
X-6989Y30708D01*
X-7002Y30806D01*
X-7011Y30905D01*
X-7017Y31005D01*
X-7019Y31104D01*
X-7019Y37596D01*
X-7017Y37695D01*
X-7011Y37795D01*
X-7002Y37894D01*
X-6989Y37992D01*
X-6972Y38090D01*
X-6951Y38188D01*
X-6926Y38284D01*
X-6898Y38379D01*
X-6866Y38473D01*
X-6831Y38566D01*
X-6792Y38658D01*
X-6749Y38748D01*
X-6704Y38836D01*
X-6654Y38923D01*
X-6602Y39007D01*
X-6546Y39090D01*
X-6488Y39170D01*
X-6426Y39248D01*
X-6361Y39323D01*
X-6293Y39396D01*
X-6223Y39466D01*
X-6150Y39534D01*
X-6075Y39599D01*
X-5997Y39661D01*
X-5917Y39719D01*
X-5834Y39775D01*
X-5750Y39827D01*
X-5663Y39877D01*
X-5575Y39922D01*
X-5485Y39965D01*
X-5393Y40004D01*
X-5301Y40039D01*
X-5206Y40071D01*
X-5111Y40099D01*
X-5015Y40124D01*
X-4917Y40145D01*
X-4819Y40162D01*
X-4721Y40175D01*
X-4622Y40184D01*
X-4522Y40190D01*
X-4423Y40192D01*
X-1826Y40192D01*
X5267Y40192D02*
X5267Y31104D01*
X5266Y31104D02*
X5264Y31005D01*
X5258Y30905D01*
X5249Y30806D01*
X5236Y30708D01*
X5219Y30610D01*
X5198Y30512D01*
X5173Y30416D01*
X5145Y30321D01*
X5113Y30227D01*
X5078Y30134D01*
X5039Y30042D01*
X4996Y29952D01*
X4951Y29864D01*
X4901Y29777D01*
X4849Y29693D01*
X4793Y29610D01*
X4735Y29530D01*
X4673Y29452D01*
X4608Y29377D01*
X4540Y29304D01*
X4470Y29234D01*
X4397Y29166D01*
X4322Y29101D01*
X4244Y29039D01*
X4164Y28981D01*
X4081Y28925D01*
X3997Y28873D01*
X3910Y28823D01*
X3822Y28778D01*
X3732Y28735D01*
X3640Y28696D01*
X3547Y28661D01*
X3453Y28629D01*
X3358Y28601D01*
X3262Y28576D01*
X3164Y28555D01*
X3066Y28538D01*
X2968Y28525D01*
X2869Y28516D01*
X2769Y28510D01*
X2670Y28508D01*
X1372Y28508D01*
X10944Y28508D02*
X10944Y40192D01*
X10944Y28508D02*
X16137Y28508D01*
X23009Y28508D02*
X25606Y28508D01*
X23009Y28508D02*
X22910Y28510D01*
X22810Y28516D01*
X22711Y28525D01*
X22613Y28538D01*
X22515Y28555D01*
X22417Y28576D01*
X22321Y28601D01*
X22226Y28629D01*
X22132Y28661D01*
X22039Y28696D01*
X21947Y28735D01*
X21857Y28778D01*
X21769Y28823D01*
X21682Y28873D01*
X21598Y28925D01*
X21515Y28981D01*
X21435Y29039D01*
X21357Y29101D01*
X21282Y29166D01*
X21209Y29234D01*
X21139Y29304D01*
X21071Y29377D01*
X21006Y29452D01*
X20944Y29530D01*
X20886Y29610D01*
X20830Y29693D01*
X20778Y29777D01*
X20728Y29864D01*
X20683Y29952D01*
X20640Y30042D01*
X20601Y30134D01*
X20566Y30227D01*
X20534Y30321D01*
X20506Y30416D01*
X20481Y30512D01*
X20460Y30610D01*
X20443Y30708D01*
X20430Y30806D01*
X20421Y30905D01*
X20415Y31005D01*
X20413Y31104D01*
X20413Y37596D01*
X20415Y37695D01*
X20421Y37795D01*
X20430Y37894D01*
X20443Y37992D01*
X20460Y38090D01*
X20481Y38188D01*
X20506Y38284D01*
X20534Y38379D01*
X20566Y38473D01*
X20601Y38566D01*
X20640Y38658D01*
X20683Y38748D01*
X20728Y38836D01*
X20778Y38923D01*
X20830Y39007D01*
X20886Y39090D01*
X20944Y39170D01*
X21006Y39248D01*
X21071Y39323D01*
X21139Y39396D01*
X21209Y39466D01*
X21282Y39534D01*
X21357Y39599D01*
X21435Y39661D01*
X21515Y39719D01*
X21598Y39775D01*
X21682Y39827D01*
X21769Y39877D01*
X21857Y39922D01*
X21947Y39965D01*
X22039Y40004D01*
X22131Y40039D01*
X22226Y40071D01*
X22321Y40099D01*
X22417Y40124D01*
X22515Y40145D01*
X22613Y40162D01*
X22711Y40175D01*
X22810Y40184D01*
X22910Y40190D01*
X23009Y40192D01*
X25606Y40192D01*
X32699Y40192D02*
X32699Y31104D01*
X32698Y31104D02*
X32696Y31005D01*
X32690Y30905D01*
X32681Y30806D01*
X32668Y30708D01*
X32651Y30610D01*
X32630Y30512D01*
X32605Y30416D01*
X32577Y30321D01*
X32545Y30227D01*
X32510Y30134D01*
X32471Y30042D01*
X32428Y29952D01*
X32383Y29864D01*
X32333Y29777D01*
X32281Y29693D01*
X32225Y29610D01*
X32167Y29530D01*
X32105Y29452D01*
X32040Y29377D01*
X31972Y29304D01*
X31902Y29234D01*
X31829Y29166D01*
X31754Y29101D01*
X31676Y29039D01*
X31596Y28981D01*
X31513Y28925D01*
X31429Y28873D01*
X31342Y28823D01*
X31254Y28778D01*
X31164Y28735D01*
X31072Y28696D01*
X30979Y28661D01*
X30885Y28629D01*
X30790Y28601D01*
X30694Y28576D01*
X30596Y28555D01*
X30498Y28538D01*
X30400Y28525D01*
X30301Y28516D01*
X30201Y28510D01*
X30102Y28508D01*
X28804Y28508D01*
X38376Y28508D02*
X38376Y40192D01*
X38376Y28508D02*
X43569Y28508D01*
X50441Y28508D02*
X53038Y28508D01*
X50441Y28508D02*
X50342Y28510D01*
X50242Y28516D01*
X50143Y28525D01*
X50045Y28538D01*
X49947Y28555D01*
X49849Y28576D01*
X49753Y28601D01*
X49658Y28629D01*
X49564Y28661D01*
X49471Y28696D01*
X49379Y28735D01*
X49289Y28778D01*
X49201Y28823D01*
X49114Y28873D01*
X49030Y28925D01*
X48947Y28981D01*
X48867Y29039D01*
X48789Y29101D01*
X48714Y29166D01*
X48641Y29234D01*
X48571Y29304D01*
X48503Y29377D01*
X48438Y29452D01*
X48376Y29530D01*
X48318Y29610D01*
X48262Y29693D01*
X48210Y29777D01*
X48160Y29864D01*
X48115Y29952D01*
X48072Y30042D01*
X48033Y30134D01*
X47998Y30227D01*
X47966Y30321D01*
X47938Y30416D01*
X47913Y30512D01*
X47892Y30610D01*
X47875Y30708D01*
X47862Y30806D01*
X47853Y30905D01*
X47847Y31005D01*
X47845Y31104D01*
X47845Y37596D01*
X47847Y37695D01*
X47853Y37795D01*
X47862Y37894D01*
X47875Y37992D01*
X47892Y38090D01*
X47913Y38188D01*
X47938Y38284D01*
X47966Y38379D01*
X47998Y38473D01*
X48033Y38566D01*
X48072Y38658D01*
X48115Y38748D01*
X48160Y38836D01*
X48210Y38923D01*
X48262Y39007D01*
X48318Y39090D01*
X48376Y39170D01*
X48438Y39248D01*
X48503Y39323D01*
X48571Y39396D01*
X48641Y39466D01*
X48714Y39534D01*
X48789Y39599D01*
X48867Y39661D01*
X48947Y39719D01*
X49030Y39775D01*
X49114Y39827D01*
X49201Y39877D01*
X49289Y39922D01*
X49379Y39965D01*
X49471Y40004D01*
X49563Y40039D01*
X49658Y40071D01*
X49753Y40099D01*
X49849Y40124D01*
X49947Y40145D01*
X50045Y40162D01*
X50143Y40175D01*
X50242Y40184D01*
X50342Y40190D01*
X50441Y40192D01*
X53038Y40192D01*
D11*
X19300Y26000D02*
X-26300Y26000D01*
X19300Y26000D02*
X26300Y26000D01*
X26300Y-26000D02*
X19300Y-26000D01*
X-26300Y-26000D01*
X19300Y-26000D02*
X19300Y26000D01*
D12*
X33901Y-19050D03*
X33901Y-6350D03*
X33901Y6350D03*
X33901Y19050D03*
X-33901Y19050D03*
X-33901Y6350D03*
X-33901Y-6350D03*
X-33901Y-19050D03*
M02*
