G04 EAGLE Gerber RS-274X export*
G75*
%MOMM*%
%FSLAX34Y34*%
%LPD*%
%INSilkscreen Bottom*%
%IPPOS*%
%AMOC8*
5,1,8,0,0,1.08239X$1,22.5*%
G01*
%ADD10R,0.455000X0.013000*%
%ADD11R,0.715000X0.013000*%
%ADD12R,0.156000X0.013000*%
%ADD13R,0.325000X0.013000*%
%ADD14R,0.390000X0.013000*%
%ADD15R,0.468000X0.013000*%
%ADD16R,0.312000X0.013000*%
%ADD17R,0.299000X0.013000*%
%ADD18R,0.403000X0.013000*%
%ADD19R,0.481000X0.013000*%
%ADD20R,0.546000X0.013000*%
%ADD21R,0.533000X0.013000*%
%ADD22R,0.585000X0.013000*%
%ADD23R,0.637000X0.013000*%
%ADD24R,0.689000X0.013000*%
%ADD25R,0.728000X0.013000*%
%ADD26R,0.767000X0.013000*%
%ADD27R,0.806000X0.013000*%
%ADD28R,0.845000X0.013000*%
%ADD29R,0.858000X0.013000*%
%ADD30R,0.377000X0.013000*%
%ADD31R,0.039000X0.013000*%
%ADD32R,0.026000X0.013000*%
%ADD33R,0.364000X0.013000*%
%ADD34R,0.052000X0.013000*%
%ADD35R,0.351000X0.013000*%
%ADD36R,0.078000X0.013000*%
%ADD37R,0.065000X0.013000*%
%ADD38R,0.338000X0.013000*%
%ADD39R,0.104000X0.013000*%
%ADD40R,0.091000X0.013000*%
%ADD41R,0.117000X0.013000*%
%ADD42R,0.143000X0.013000*%
%ADD43R,0.832000X0.013000*%
%ADD44R,0.130000X0.013000*%
%ADD45R,0.169000X0.013000*%
%ADD46R,0.286000X0.013000*%
%ADD47R,0.208000X0.013000*%
%ADD48R,0.182000X0.013000*%
%ADD49R,0.273000X0.013000*%
%ADD50R,0.195000X0.013000*%
%ADD51R,0.260000X0.013000*%
%ADD52R,0.221000X0.013000*%
%ADD53R,0.247000X0.013000*%
%ADD54R,0.429000X0.013000*%
%ADD55R,0.234000X0.013000*%
%ADD56R,0.416000X0.013000*%
%ADD57R,0.013000X0.013000*%
%ADD58R,0.442000X0.013000*%
%ADD59R,0.923000X0.013000*%
%ADD60R,1.170000X0.013000*%
%ADD61R,0.975000X0.013000*%
%ADD62R,1.027000X0.013000*%
%ADD63R,1.066000X0.013000*%
%ADD64R,1.105000X0.013000*%
%ADD65R,1.144000X0.013000*%
%ADD66R,1.196000X0.013000*%
%ADD67R,1.235000X0.013000*%
%ADD68R,1.261000X0.013000*%
%ADD69R,1.287000X0.013000*%
%ADD70R,1.313000X0.013000*%
%ADD71R,1.339000X0.013000*%
%ADD72R,1.365000X0.013000*%
%ADD73R,1.391000X0.013000*%
%ADD74R,1.417000X0.013000*%
%ADD75R,1.430000X0.013000*%
%ADD76R,1.456000X0.013000*%
%ADD77R,1.482000X0.013000*%
%ADD78R,1.508000X0.013000*%
%ADD79R,0.494000X0.013000*%
%ADD80R,1.521000X0.013000*%
%ADD81R,0.572000X0.013000*%
%ADD82R,1.547000X0.013000*%
%ADD83R,1.326000X0.013000*%
%ADD84R,1.560000X0.013000*%
%ADD85R,1.586000X0.013000*%
%ADD86R,1.599000X0.013000*%
%ADD87R,1.625000X0.013000*%
%ADD88R,1.638000X0.013000*%
%ADD89R,0.871000X0.013000*%
%ADD90R,1.664000X0.013000*%
%ADD91R,1.677000X0.013000*%
%ADD92R,1.690000X0.013000*%
%ADD93R,1.716000X0.013000*%
%ADD94R,1.729000X0.013000*%
%ADD95R,1.742000X0.013000*%
%ADD96R,1.768000X0.013000*%
%ADD97R,0.702000X0.013000*%
%ADD98R,0.624000X0.013000*%
%ADD99R,0.819000X0.013000*%
%ADD100R,0.780000X0.013000*%
%ADD101R,0.676000X0.013000*%
%ADD102R,0.520000X0.013000*%
%ADD103R,0.741000X0.013000*%
%ADD104R,0.663000X0.013000*%
%ADD105R,0.507000X0.013000*%
%ADD106R,0.650000X0.013000*%
%ADD107R,0.611000X0.013000*%
%ADD108R,0.559000X0.013000*%
%ADD109R,0.598000X0.013000*%
%ADD110R,1.807000X0.013000*%
%ADD111R,1.794000X0.013000*%
%ADD112R,0.962000X0.013000*%
%ADD113R,0.949000X0.013000*%
%ADD114R,1.781000X0.013000*%
%ADD115R,0.936000X0.013000*%
%ADD116R,0.910000X0.013000*%
%ADD117R,0.897000X0.013000*%
%ADD118R,0.884000X0.013000*%
%ADD119R,1.755000X0.013000*%
%ADD120R,0.793000X0.013000*%
%ADD121R,1.703000X0.013000*%
%ADD122R,0.754000X0.013000*%
%ADD123R,1.651000X0.013000*%
%ADD124R,1.612000X0.013000*%
%ADD125R,1.495000X0.013000*%
%ADD126R,1.469000X0.013000*%
%ADD127R,1.443000X0.013000*%
%ADD128C,0.076200*%


D10*
X43030Y0D03*
D11*
X29900Y0D03*
D12*
X19175Y0D03*
X3185Y0D03*
D13*
X-10530Y0D03*
D14*
X-29705Y0D03*
X-43355Y0D03*
D15*
X43095Y130D03*
D11*
X30030Y130D03*
D16*
X19305Y130D03*
D17*
X3250Y130D03*
D13*
X-10530Y130D03*
D14*
X-29705Y130D03*
D18*
X-43290Y130D03*
D15*
X43095Y260D03*
D11*
X30160Y260D03*
D18*
X19240Y260D03*
X3250Y260D03*
D13*
X-10530Y260D03*
D14*
X-29705Y260D03*
D18*
X-43290Y260D03*
D15*
X43095Y390D03*
D11*
X30290Y390D03*
D19*
X19240Y390D03*
X3250Y390D03*
D13*
X-10530Y390D03*
D14*
X-29705Y390D03*
D18*
X-43290Y390D03*
D15*
X43095Y520D03*
D11*
X30420Y520D03*
D20*
X19305Y520D03*
D21*
X3250Y520D03*
D13*
X-10530Y520D03*
D14*
X-29705Y520D03*
D18*
X-43290Y520D03*
D15*
X43095Y650D03*
D11*
X30550Y650D03*
D22*
X19240Y650D03*
X3250Y650D03*
D13*
X-10530Y650D03*
D14*
X-29705Y650D03*
D18*
X-43290Y650D03*
D15*
X43095Y780D03*
D11*
X30680Y780D03*
D23*
X19240Y780D03*
X3250Y780D03*
D13*
X-10530Y780D03*
D14*
X-29705Y780D03*
D18*
X-43290Y780D03*
D15*
X43095Y910D03*
D11*
X30810Y910D03*
D24*
X19240Y910D03*
X3250Y910D03*
D13*
X-10530Y910D03*
D14*
X-29705Y910D03*
D18*
X-43290Y910D03*
D15*
X43095Y1040D03*
D11*
X30940Y1040D03*
D25*
X19305Y1040D03*
X3315Y1040D03*
D13*
X-10530Y1040D03*
D14*
X-29705Y1040D03*
D18*
X-43290Y1040D03*
D15*
X43095Y1170D03*
D11*
X31070Y1170D03*
D26*
X19240Y1170D03*
X3250Y1170D03*
D13*
X-10530Y1170D03*
D14*
X-29705Y1170D03*
D18*
X-43290Y1170D03*
D15*
X43095Y1300D03*
D11*
X31200Y1300D03*
D27*
X19305Y1300D03*
X3315Y1300D03*
D13*
X-10530Y1300D03*
D14*
X-29705Y1300D03*
D18*
X-43290Y1300D03*
D15*
X43095Y1430D03*
D11*
X31330Y1430D03*
D28*
X19240Y1430D03*
X3250Y1430D03*
D13*
X-10530Y1430D03*
D14*
X-29705Y1430D03*
D18*
X-43290Y1430D03*
D15*
X43095Y1560D03*
D11*
X31460Y1560D03*
D29*
X19305Y1560D03*
X3315Y1560D03*
D13*
X-10530Y1560D03*
D14*
X-29705Y1560D03*
D18*
X-43290Y1560D03*
D15*
X43095Y1690D03*
D11*
X31590Y1690D03*
D29*
X19435Y1690D03*
X3445Y1690D03*
D13*
X-10530Y1690D03*
D14*
X-29705Y1690D03*
D18*
X-43290Y1690D03*
D15*
X43095Y1820D03*
D11*
X31720Y1820D03*
D29*
X19565Y1820D03*
X3575Y1820D03*
D13*
X-10530Y1820D03*
D14*
X-29705Y1820D03*
D18*
X-43290Y1820D03*
D15*
X43095Y1950D03*
D11*
X31850Y1950D03*
D29*
X19695Y1950D03*
X3705Y1950D03*
D13*
X-10530Y1950D03*
D14*
X-29705Y1950D03*
D18*
X-43290Y1950D03*
D15*
X43095Y2080D03*
D11*
X31980Y2080D03*
D29*
X19825Y2080D03*
X3835Y2080D03*
D13*
X-10530Y2080D03*
D14*
X-29705Y2080D03*
D18*
X-43290Y2080D03*
D15*
X43095Y2210D03*
D11*
X32110Y2210D03*
D29*
X19955Y2210D03*
X3965Y2210D03*
D13*
X-10530Y2210D03*
D30*
X-29640Y2210D03*
D18*
X-43290Y2210D03*
D15*
X43095Y2340D03*
D11*
X32240Y2340D03*
D29*
X20085Y2340D03*
D31*
X14170Y2340D03*
D29*
X4095Y2340D03*
D32*
X-1885Y2340D03*
D13*
X-10530Y2340D03*
D33*
X-29575Y2340D03*
D18*
X-43290Y2340D03*
D15*
X43095Y2470D03*
D11*
X32370Y2470D03*
D29*
X20215Y2470D03*
D34*
X14235Y2470D03*
D29*
X4225Y2470D03*
D34*
X-1885Y2470D03*
D13*
X-10530Y2470D03*
D35*
X-29510Y2470D03*
D18*
X-43290Y2470D03*
D15*
X43095Y2600D03*
D11*
X32500Y2600D03*
D29*
X20345Y2600D03*
D36*
X14235Y2600D03*
D28*
X4290Y2600D03*
D37*
X-1820Y2600D03*
D13*
X-10530Y2600D03*
D38*
X-29445Y2600D03*
D18*
X-43290Y2600D03*
D15*
X43095Y2730D03*
D11*
X32630Y2730D03*
D28*
X20410Y2730D03*
D39*
X14235Y2730D03*
D28*
X4420Y2730D03*
D40*
X-1820Y2730D03*
D13*
X-10530Y2730D03*
X-29380Y2730D03*
D18*
X-43290Y2730D03*
D15*
X43095Y2860D03*
D11*
X32760Y2860D03*
D28*
X20540Y2860D03*
D41*
X14300Y2860D03*
D28*
X4550Y2860D03*
D41*
X-1820Y2860D03*
D13*
X-10530Y2860D03*
D16*
X-29315Y2860D03*
D18*
X-43290Y2860D03*
D15*
X43095Y2990D03*
D11*
X32890Y2990D03*
D28*
X20670Y2990D03*
D42*
X14300Y2990D03*
D43*
X4615Y2990D03*
D44*
X-1755Y2990D03*
D13*
X-10530Y2990D03*
D17*
X-29250Y2990D03*
D18*
X-43290Y2990D03*
D15*
X43095Y3120D03*
D11*
X33020Y3120D03*
D43*
X20735Y3120D03*
D45*
X14300Y3120D03*
D43*
X4745Y3120D03*
D12*
X-1755Y3120D03*
D13*
X-10530Y3120D03*
D46*
X-29185Y3120D03*
D18*
X-43290Y3120D03*
D15*
X43095Y3250D03*
D11*
X33150Y3250D03*
D21*
X22360Y3250D03*
D47*
X17745Y3250D03*
D48*
X14365Y3250D03*
D21*
X6370Y3250D03*
D47*
X1755Y3250D03*
D45*
X-1690Y3250D03*
D13*
X-10530Y3250D03*
D49*
X-29120Y3250D03*
D18*
X-43290Y3250D03*
D15*
X43095Y3380D03*
D11*
X33280Y3380D03*
D19*
X22620Y3380D03*
D44*
X17485Y3380D03*
D47*
X14365Y3380D03*
D19*
X6630Y3380D03*
D44*
X1495Y3380D03*
D50*
X-1690Y3380D03*
D13*
X-10530Y3380D03*
D51*
X-29055Y3380D03*
D18*
X-43290Y3380D03*
D15*
X43095Y3510D03*
D11*
X33410Y3510D03*
D10*
X22880Y3510D03*
D36*
X17355Y3510D03*
D52*
X14430Y3510D03*
D10*
X6890Y3510D03*
D36*
X1365Y3510D03*
D52*
X-1690Y3510D03*
D13*
X-10530Y3510D03*
D53*
X-28990Y3510D03*
D18*
X-43290Y3510D03*
D15*
X43095Y3640D03*
D11*
X33540Y3640D03*
D54*
X23010Y3640D03*
D31*
X17290Y3640D03*
D53*
X14430Y3640D03*
D54*
X7020Y3640D03*
D31*
X1300Y3640D03*
D55*
X-1625Y3640D03*
D13*
X-10530Y3640D03*
D55*
X-28925Y3640D03*
D18*
X-43290Y3640D03*
D15*
X43095Y3770D03*
D11*
X33670Y3770D03*
D56*
X23205Y3770D03*
D57*
X17290Y3770D03*
D51*
X14495Y3770D03*
D54*
X7150Y3770D03*
D57*
X1300Y3770D03*
D53*
X-1560Y3770D03*
D16*
X-10465Y3770D03*
D52*
X-28860Y3770D03*
D18*
X-43290Y3770D03*
D15*
X43095Y3900D03*
D11*
X33800Y3900D03*
D56*
X23335Y3900D03*
D46*
X14495Y3900D03*
D18*
X7280Y3900D03*
D49*
X-1560Y3900D03*
D17*
X-10400Y3900D03*
D47*
X-28795Y3900D03*
D18*
X-43290Y3900D03*
D15*
X43095Y4030D03*
D11*
X33930Y4030D03*
D18*
X23400Y4030D03*
D17*
X14560Y4030D03*
D18*
X7410Y4030D03*
D46*
X-1495Y4030D03*
X-10335Y4030D03*
D50*
X-28730Y4030D03*
D18*
X-43290Y4030D03*
D15*
X43095Y4160D03*
D11*
X34060Y4160D03*
D14*
X23465Y4160D03*
D16*
X14625Y4160D03*
D14*
X7475Y4160D03*
D16*
X-1495Y4160D03*
D49*
X-10270Y4160D03*
D48*
X-28665Y4160D03*
D18*
X-43290Y4160D03*
D15*
X43095Y4290D03*
D11*
X34190Y4290D03*
D14*
X23595Y4290D03*
D38*
X14625Y4290D03*
D30*
X7540Y4290D03*
D13*
X-1430Y4290D03*
D51*
X-10205Y4290D03*
D45*
X-28600Y4290D03*
D18*
X-43290Y4290D03*
D15*
X43095Y4420D03*
D11*
X34320Y4420D03*
D30*
X23660Y4420D03*
D35*
X14690Y4420D03*
D30*
X7670Y4420D03*
D38*
X-1365Y4420D03*
D53*
X-10140Y4420D03*
D12*
X-28535Y4420D03*
D18*
X-43290Y4420D03*
D15*
X43095Y4550D03*
D11*
X34450Y4550D03*
D33*
X23725Y4550D03*
D35*
X14690Y4550D03*
D33*
X7735Y4550D03*
X-1365Y4550D03*
D55*
X-10075Y4550D03*
D42*
X-28470Y4550D03*
D18*
X-43290Y4550D03*
D15*
X43095Y4680D03*
D11*
X34580Y4680D03*
D33*
X23855Y4680D03*
X14625Y4680D03*
X7735Y4680D03*
X-1365Y4680D03*
D52*
X-10010Y4680D03*
D44*
X-28405Y4680D03*
D18*
X-43290Y4680D03*
D15*
X43095Y4810D03*
D11*
X34710Y4810D03*
D33*
X23855Y4810D03*
D35*
X14560Y4810D03*
D33*
X7865Y4810D03*
D35*
X-1430Y4810D03*
D47*
X-9945Y4810D03*
D41*
X-28340Y4810D03*
D14*
X-43225Y4810D03*
D15*
X43095Y4940D03*
D11*
X34840Y4940D03*
D35*
X23920Y4940D03*
X14560Y4940D03*
X7930Y4940D03*
D33*
X-1495Y4940D03*
D50*
X-9880Y4940D03*
D39*
X-28275Y4940D03*
D30*
X-43160Y4940D03*
D15*
X43095Y5070D03*
D11*
X34970Y5070D03*
D35*
X23920Y5070D03*
D38*
X14495Y5070D03*
D35*
X7930Y5070D03*
X-1560Y5070D03*
D48*
X-9815Y5070D03*
D40*
X-28210Y5070D03*
D33*
X-43095Y5070D03*
D15*
X43095Y5200D03*
D11*
X35100Y5200D03*
D35*
X24050Y5200D03*
X14430Y5200D03*
D38*
X7995Y5200D03*
D35*
X-1560Y5200D03*
D45*
X-9750Y5200D03*
D57*
X-12090Y5200D03*
D36*
X-28145Y5200D03*
D35*
X-43030Y5200D03*
D10*
X43160Y5330D03*
D11*
X35230Y5330D03*
D35*
X24050Y5330D03*
X14430Y5330D03*
X8060Y5330D03*
D38*
X-1625Y5330D03*
D12*
X-9685Y5330D03*
D32*
X-12025Y5330D03*
D37*
X-28080Y5330D03*
D38*
X-42965Y5330D03*
D58*
X43225Y5460D03*
D11*
X35360Y5460D03*
D38*
X24115Y5460D03*
X14365Y5460D03*
D35*
X8060Y5460D03*
D38*
X-1625Y5460D03*
D42*
X-9620Y5460D03*
D31*
X-11960Y5460D03*
D34*
X-28015Y5460D03*
D57*
X-31590Y5460D03*
D13*
X-42900Y5460D03*
D54*
X43290Y5590D03*
D11*
X35490Y5590D03*
D38*
X24115Y5590D03*
X14365Y5590D03*
X8125Y5590D03*
D35*
X-1690Y5590D03*
D44*
X-9555Y5590D03*
D34*
X-11895Y5590D03*
D31*
X-27950Y5590D03*
D32*
X-31525Y5590D03*
D16*
X-42835Y5590D03*
D56*
X43355Y5720D03*
D11*
X35620Y5720D03*
D38*
X24115Y5720D03*
X14365Y5720D03*
X8125Y5720D03*
X-1755Y5720D03*
D41*
X-9490Y5720D03*
D37*
X-11830Y5720D03*
D32*
X-27885Y5720D03*
D31*
X-31460Y5720D03*
D17*
X-42770Y5720D03*
D18*
X43420Y5850D03*
D11*
X35750Y5850D03*
D13*
X24180Y5850D03*
D38*
X14365Y5850D03*
X8125Y5850D03*
X-1755Y5850D03*
D39*
X-9425Y5850D03*
D36*
X-11765Y5850D03*
D57*
X-27820Y5850D03*
D34*
X-31395Y5850D03*
D46*
X-42705Y5850D03*
D14*
X43485Y5980D03*
D11*
X35880Y5980D03*
D13*
X24180Y5980D03*
D38*
X14235Y5980D03*
X8125Y5980D03*
X-1755Y5980D03*
D40*
X-9360Y5980D03*
X-11700Y5980D03*
D37*
X-31330Y5980D03*
D49*
X-42640Y5980D03*
D30*
X43550Y6110D03*
D11*
X36010Y6110D03*
D38*
X24245Y6110D03*
X14235Y6110D03*
D13*
X8190Y6110D03*
D38*
X-1755Y6110D03*
D36*
X-9295Y6110D03*
D39*
X-11635Y6110D03*
D36*
X-31265Y6110D03*
D51*
X-42575Y6110D03*
D33*
X43615Y6240D03*
D11*
X36140Y6240D03*
D38*
X24245Y6240D03*
X14235Y6240D03*
D13*
X8190Y6240D03*
D38*
X-1755Y6240D03*
D37*
X-9230Y6240D03*
D41*
X-11570Y6240D03*
D40*
X-31200Y6240D03*
D53*
X-42510Y6240D03*
D35*
X43680Y6370D03*
D11*
X36270Y6370D03*
D38*
X24245Y6370D03*
X14235Y6370D03*
X8255Y6370D03*
X-1755Y6370D03*
D34*
X-9165Y6370D03*
D44*
X-11505Y6370D03*
D39*
X-31135Y6370D03*
D55*
X-42445Y6370D03*
D38*
X43745Y6500D03*
D11*
X36400Y6500D03*
D38*
X24245Y6500D03*
X14235Y6500D03*
X8255Y6500D03*
X-1755Y6500D03*
D31*
X-9100Y6500D03*
D42*
X-11440Y6500D03*
D41*
X-31070Y6500D03*
D52*
X-42380Y6500D03*
D13*
X43810Y6630D03*
D25*
X36595Y6630D03*
D38*
X24245Y6630D03*
X14235Y6630D03*
X8255Y6630D03*
X-1755Y6630D03*
D32*
X-9035Y6630D03*
D12*
X-11375Y6630D03*
D44*
X-31005Y6630D03*
D47*
X-42315Y6630D03*
D16*
X43875Y6760D03*
D25*
X36725Y6760D03*
D38*
X24245Y6760D03*
X14235Y6760D03*
X8255Y6760D03*
X-1755Y6760D03*
D57*
X-8970Y6760D03*
D45*
X-11310Y6760D03*
D42*
X-30940Y6760D03*
D50*
X-42250Y6760D03*
D17*
X43940Y6890D03*
D25*
X36855Y6890D03*
D38*
X24245Y6890D03*
X14235Y6890D03*
D13*
X8190Y6890D03*
D38*
X-1755Y6890D03*
D48*
X-11245Y6890D03*
D12*
X-30875Y6890D03*
D48*
X-42185Y6890D03*
D46*
X44005Y7020D03*
D25*
X36985Y7020D03*
D38*
X24245Y7020D03*
D13*
X14300Y7020D03*
D38*
X8125Y7020D03*
X-1755Y7020D03*
D50*
X-11180Y7020D03*
D45*
X-30810Y7020D03*
X-42120Y7020D03*
D49*
X44070Y7150D03*
D29*
X36465Y7150D03*
D38*
X24245Y7150D03*
D13*
X14300Y7150D03*
D38*
X8125Y7150D03*
X-1755Y7150D03*
D47*
X-11115Y7150D03*
D48*
X-30745Y7150D03*
D12*
X-42055Y7150D03*
D51*
X44135Y7280D03*
D59*
X36270Y7280D03*
D35*
X24180Y7280D03*
D38*
X14365Y7280D03*
X8125Y7280D03*
X-1755Y7280D03*
D52*
X-11050Y7280D03*
D60*
X-25805Y7280D03*
D42*
X-41990Y7280D03*
D53*
X44200Y7410D03*
D61*
X36140Y7410D03*
D38*
X24115Y7410D03*
X14365Y7410D03*
X8125Y7410D03*
X-1625Y7410D03*
D55*
X-10985Y7410D03*
D60*
X-25805Y7410D03*
D44*
X-41925Y7410D03*
D55*
X44265Y7540D03*
D62*
X36010Y7540D03*
D38*
X24115Y7540D03*
X14365Y7540D03*
X8125Y7540D03*
X-1625Y7540D03*
D53*
X-10920Y7540D03*
D60*
X-25805Y7540D03*
D41*
X-41860Y7540D03*
D52*
X44330Y7670D03*
D63*
X35945Y7670D03*
D38*
X24115Y7670D03*
D35*
X14430Y7670D03*
D38*
X8125Y7670D03*
X-1625Y7670D03*
D51*
X-10855Y7670D03*
D60*
X-25805Y7670D03*
D39*
X-41795Y7670D03*
D47*
X44395Y7800D03*
D64*
X35880Y7800D03*
D35*
X24050Y7800D03*
X14430Y7800D03*
X8060Y7800D03*
X-1560Y7800D03*
D49*
X-10790Y7800D03*
D60*
X-25805Y7800D03*
D40*
X-41730Y7800D03*
D50*
X44460Y7930D03*
D65*
X35815Y7930D03*
D35*
X24050Y7930D03*
X14430Y7930D03*
X8060Y7930D03*
X-1560Y7930D03*
D46*
X-10725Y7930D03*
D60*
X-25805Y7930D03*
D36*
X-41665Y7930D03*
D48*
X44525Y8060D03*
D60*
X35815Y8060D03*
D35*
X24050Y8060D03*
X14560Y8060D03*
X7930Y8060D03*
D33*
X-1495Y8060D03*
D17*
X-10660Y8060D03*
D60*
X-25805Y8060D03*
D37*
X-41600Y8060D03*
D57*
X-45240Y8060D03*
D45*
X44590Y8190D03*
D66*
X35815Y8190D03*
D35*
X23920Y8190D03*
X14560Y8190D03*
X7930Y8190D03*
X-1430Y8190D03*
D16*
X-10595Y8190D03*
D60*
X-25805Y8190D03*
D34*
X-41535Y8190D03*
D32*
X-45175Y8190D03*
D12*
X44655Y8320D03*
D67*
X35750Y8320D03*
D35*
X23920Y8320D03*
D33*
X14625Y8320D03*
X7865Y8320D03*
X-1365Y8320D03*
D13*
X-10530Y8320D03*
D60*
X-25805Y8320D03*
D31*
X-41470Y8320D03*
X-45110Y8320D03*
D42*
X44720Y8450D03*
D68*
X35750Y8450D03*
D33*
X23855Y8450D03*
X14755Y8450D03*
D35*
X7800Y8450D03*
D33*
X-1365Y8450D03*
D13*
X-10530Y8450D03*
D60*
X-25805Y8450D03*
D32*
X-41405Y8450D03*
D34*
X-45045Y8450D03*
D44*
X44785Y8580D03*
D69*
X35750Y8580D03*
D33*
X23855Y8580D03*
X14755Y8580D03*
D35*
X7800Y8580D03*
D33*
X-1235Y8580D03*
D13*
X-10530Y8580D03*
D60*
X-25805Y8580D03*
D37*
X-44980Y8580D03*
D41*
X44850Y8710D03*
D70*
X35750Y8710D03*
D38*
X23855Y8710D03*
D30*
X14820Y8710D03*
D38*
X7865Y8710D03*
D30*
X-1170Y8710D03*
D13*
X-10530Y8710D03*
D60*
X-25805Y8710D03*
D36*
X-44915Y8710D03*
D39*
X44915Y8840D03*
D71*
X35750Y8840D03*
D13*
X23920Y8840D03*
D30*
X14950Y8840D03*
D13*
X7930Y8840D03*
D14*
X-1105Y8840D03*
D13*
X-10530Y8840D03*
D60*
X-25805Y8840D03*
D40*
X-44850Y8840D03*
X44980Y8970D03*
D72*
X35750Y8970D03*
D17*
X23920Y8970D03*
D14*
X15015Y8970D03*
D17*
X7930Y8970D03*
D14*
X-975Y8970D03*
D13*
X-10530Y8970D03*
D60*
X-25805Y8970D03*
D39*
X-44785Y8970D03*
D36*
X45045Y9100D03*
D73*
X35750Y9100D03*
D46*
X23985Y9100D03*
D18*
X15080Y9100D03*
D46*
X7995Y9100D03*
D18*
X-910Y9100D03*
D13*
X-10530Y9100D03*
D60*
X-25805Y9100D03*
D41*
X-44720Y9100D03*
D37*
X45110Y9230D03*
D74*
X35750Y9230D03*
D49*
X24050Y9230D03*
D56*
X15275Y9230D03*
D51*
X7995Y9230D03*
D56*
X-845Y9230D03*
D13*
X-10530Y9230D03*
D60*
X-25805Y9230D03*
D44*
X-44655Y9230D03*
D34*
X45175Y9360D03*
D75*
X35815Y9360D03*
D53*
X24050Y9360D03*
D32*
X21255Y9360D03*
D54*
X15340Y9360D03*
D53*
X8060Y9360D03*
D57*
X5200Y9360D03*
D54*
X-650Y9360D03*
D13*
X-10530Y9360D03*
D60*
X-25805Y9360D03*
D42*
X-44590Y9360D03*
D31*
X45240Y9490D03*
D76*
X35815Y9490D03*
D55*
X24115Y9490D03*
D37*
X21190Y9490D03*
D58*
X15535Y9490D03*
D52*
X8060Y9490D03*
D34*
X5135Y9490D03*
D58*
X-455Y9490D03*
D13*
X-10530Y9490D03*
D60*
X-25805Y9490D03*
D12*
X-44525Y9490D03*
D32*
X45305Y9620D03*
D77*
X35815Y9620D03*
D47*
X24115Y9620D03*
D39*
X21125Y9620D03*
D15*
X15665Y9620D03*
D47*
X8125Y9620D03*
D40*
X5070Y9620D03*
D10*
X-390Y9620D03*
D13*
X-10530Y9620D03*
D60*
X-25805Y9620D03*
D45*
X-44460Y9620D03*
D57*
X45370Y9750D03*
D78*
X35815Y9750D03*
D50*
X24180Y9750D03*
D12*
X20995Y9750D03*
D79*
X15925Y9750D03*
D48*
X8125Y9750D03*
D42*
X4940Y9750D03*
D19*
X-130Y9750D03*
D13*
X-10530Y9750D03*
D60*
X-25805Y9750D03*
D48*
X-44395Y9750D03*
D80*
X35880Y9880D03*
D45*
X24180Y9880D03*
D53*
X20670Y9880D03*
D81*
X16315Y9880D03*
D45*
X8190Y9880D03*
D53*
X4550Y9880D03*
D81*
X325Y9880D03*
D13*
X-10530Y9880D03*
D60*
X-25805Y9880D03*
D50*
X-44330Y9880D03*
D82*
X35880Y10010D03*
D42*
X24180Y10010D03*
D28*
X17810Y10010D03*
D42*
X8190Y10010D03*
D43*
X1755Y10010D03*
D83*
X-10595Y10010D03*
D60*
X-25805Y10010D03*
D47*
X-44265Y10010D03*
D84*
X35945Y10140D03*
D44*
X24245Y10140D03*
D29*
X17875Y10140D03*
D44*
X8255Y10140D03*
D28*
X1820Y10140D03*
D83*
X-10595Y10140D03*
D60*
X-25805Y10140D03*
D52*
X-44200Y10140D03*
D85*
X35945Y10270D03*
D39*
X24245Y10270D03*
D29*
X18005Y10270D03*
D39*
X8255Y10270D03*
D28*
X1950Y10270D03*
D83*
X-10595Y10270D03*
D60*
X-25805Y10270D03*
D55*
X-44135Y10270D03*
D86*
X36010Y10400D03*
D40*
X24310Y10400D03*
D29*
X18135Y10400D03*
D36*
X8255Y10400D03*
D28*
X2080Y10400D03*
D83*
X-10595Y10400D03*
D60*
X-25805Y10400D03*
D53*
X-44070Y10400D03*
D87*
X36010Y10530D03*
D37*
X24310Y10530D03*
D29*
X18265Y10530D03*
D37*
X8320Y10530D03*
D29*
X2145Y10530D03*
D83*
X-10595Y10530D03*
D60*
X-25805Y10530D03*
D51*
X-44005Y10530D03*
D88*
X36075Y10660D03*
D31*
X24310Y10660D03*
D89*
X18330Y10660D03*
D31*
X8320Y10660D03*
D29*
X2275Y10660D03*
D83*
X-10595Y10660D03*
D60*
X-25805Y10660D03*
D49*
X-43940Y10660D03*
D90*
X36075Y10790D03*
D57*
X24310Y10790D03*
D89*
X18460Y10790D03*
D57*
X8320Y10790D03*
D29*
X2405Y10790D03*
D83*
X-10595Y10790D03*
D60*
X-25805Y10790D03*
D46*
X-43875Y10790D03*
D91*
X36140Y10920D03*
D89*
X18590Y10920D03*
D29*
X2535Y10920D03*
D83*
X-10595Y10920D03*
D60*
X-25805Y10920D03*
D17*
X-43810Y10920D03*
D92*
X36205Y11050D03*
D89*
X18720Y11050D03*
D29*
X2665Y11050D03*
D83*
X-10595Y11050D03*
D60*
X-25805Y11050D03*
D16*
X-43745Y11050D03*
D93*
X36205Y11180D03*
D89*
X18850Y11180D03*
D29*
X2795Y11180D03*
D83*
X-10595Y11180D03*
D60*
X-25805Y11180D03*
D13*
X-43680Y11180D03*
D94*
X36270Y11310D03*
D89*
X18980Y11310D03*
D29*
X2925Y11310D03*
D83*
X-10595Y11310D03*
D18*
X-21970Y11310D03*
D14*
X-29705Y11310D03*
D38*
X-43615Y11310D03*
D95*
X36335Y11440D03*
D89*
X19110Y11440D03*
D29*
X3055Y11440D03*
D83*
X-10595Y11440D03*
D18*
X-21970Y11440D03*
D14*
X-29705Y11440D03*
D35*
X-43550Y11440D03*
D96*
X36335Y11570D03*
D89*
X19240Y11570D03*
D29*
X3185Y11570D03*
D83*
X-10595Y11570D03*
D18*
X-21970Y11570D03*
D14*
X-29705Y11570D03*
D33*
X-43485Y11570D03*
D97*
X41795Y11700D03*
D98*
X30615Y11700D03*
D29*
X19305Y11700D03*
D28*
X3250Y11700D03*
D83*
X-10595Y11700D03*
D18*
X-21970Y11700D03*
D14*
X-29705Y11700D03*
D30*
X-43420Y11700D03*
D97*
X41925Y11830D03*
D81*
X30355Y11830D03*
D99*
X19240Y11830D03*
X3250Y11830D03*
D83*
X-10595Y11830D03*
D18*
X-21970Y11830D03*
D14*
X-29705Y11830D03*
X-43355Y11830D03*
D24*
X41990Y11960D03*
D20*
X30225Y11960D03*
D100*
X19305Y11960D03*
X3315Y11960D03*
D83*
X-10595Y11960D03*
D18*
X-21970Y11960D03*
D14*
X-29705Y11960D03*
D18*
X-43290Y11960D03*
D101*
X42055Y12090D03*
D102*
X30095Y12090D03*
D103*
X19240Y12090D03*
X3250Y12090D03*
D83*
X-10595Y12090D03*
D18*
X-21970Y12090D03*
D14*
X-29705Y12090D03*
D18*
X-43290Y12090D03*
D104*
X42120Y12220D03*
D105*
X30030Y12220D03*
D97*
X19305Y12220D03*
X3315Y12220D03*
D83*
X-10595Y12220D03*
D18*
X-21970Y12220D03*
D14*
X-29705Y12220D03*
D18*
X-43290Y12220D03*
D106*
X42185Y12350D03*
D79*
X29965Y12350D03*
D106*
X19305Y12350D03*
D104*
X3250Y12350D03*
D83*
X-10595Y12350D03*
D18*
X-21970Y12350D03*
D14*
X-29705Y12350D03*
D18*
X-43290Y12350D03*
D23*
X42250Y12480D03*
D79*
X29965Y12480D03*
D107*
X19370Y12480D03*
X3250Y12480D03*
D83*
X-10595Y12480D03*
D18*
X-21970Y12480D03*
D14*
X-29705Y12480D03*
D18*
X-43290Y12480D03*
D98*
X42315Y12610D03*
D79*
X29835Y12610D03*
D20*
X19305Y12610D03*
D108*
X3250Y12610D03*
D83*
X-10595Y12610D03*
D18*
X-21970Y12610D03*
D14*
X-29705Y12610D03*
D18*
X-43290Y12610D03*
D107*
X42380Y12740D03*
D79*
X29835Y12740D03*
D105*
X19240Y12740D03*
X3250Y12740D03*
D83*
X-10595Y12740D03*
D18*
X-21970Y12740D03*
D14*
X-29705Y12740D03*
D18*
X-43290Y12740D03*
D109*
X42445Y12870D03*
D19*
X29770Y12870D03*
D54*
X19370Y12870D03*
X3250Y12870D03*
D83*
X-10595Y12870D03*
D18*
X-21970Y12870D03*
D14*
X-29705Y12870D03*
D18*
X-43290Y12870D03*
D22*
X42510Y13000D03*
D19*
X29770Y13000D03*
D38*
X19305Y13000D03*
X3315Y13000D03*
D83*
X-10595Y13000D03*
D18*
X-21970Y13000D03*
D14*
X-29705Y13000D03*
D18*
X-43290Y13000D03*
D81*
X42575Y13130D03*
D19*
X29770Y13130D03*
D55*
X19305Y13130D03*
X3315Y13130D03*
D83*
X-10595Y13130D03*
D18*
X-21970Y13130D03*
D14*
X-29705Y13130D03*
D18*
X-43290Y13130D03*
D108*
X42640Y13260D03*
D19*
X29770Y13260D03*
D18*
X-21970Y13260D03*
D14*
X-29705Y13260D03*
D108*
X-37310Y13260D03*
D18*
X-43290Y13260D03*
D20*
X42705Y13390D03*
D19*
X29770Y13390D03*
D18*
X-21970Y13390D03*
D14*
X-29705Y13390D03*
D108*
X-37440Y13390D03*
D18*
X-43290Y13390D03*
D21*
X42770Y13520D03*
D19*
X29770Y13520D03*
D18*
X-21970Y13520D03*
D14*
X-29705Y13520D03*
D108*
X-37570Y13520D03*
D18*
X-43290Y13520D03*
D102*
X42835Y13650D03*
D19*
X29770Y13650D03*
D18*
X-21970Y13650D03*
D14*
X-29705Y13650D03*
D108*
X-37700Y13650D03*
D18*
X-43290Y13650D03*
D105*
X42900Y13780D03*
D19*
X29770Y13780D03*
D18*
X-21970Y13780D03*
D14*
X-29705Y13780D03*
D108*
X-37830Y13780D03*
D18*
X-43290Y13780D03*
D110*
X36400Y13910D03*
D18*
X-21970Y13910D03*
D14*
X-29705Y13910D03*
D108*
X-37960Y13910D03*
D18*
X-43290Y13910D03*
D111*
X36465Y14040D03*
D18*
X-21970Y14040D03*
D14*
X-29705Y14040D03*
D108*
X-38090Y14040D03*
D18*
X-43290Y14040D03*
D111*
X36465Y14170D03*
D18*
X-21970Y14170D03*
D14*
X-29705Y14170D03*
D108*
X-38220Y14170D03*
D18*
X-43290Y14170D03*
D111*
X36465Y14300D03*
D18*
X-21970Y14300D03*
D14*
X-29705Y14300D03*
D108*
X-38350Y14300D03*
D18*
X-43290Y14300D03*
D111*
X36465Y14430D03*
D18*
X-21970Y14430D03*
D14*
X-29705Y14430D03*
D112*
X-40495Y14430D03*
D111*
X36465Y14560D03*
D18*
X-21970Y14560D03*
D14*
X-29705Y14560D03*
D113*
X-40560Y14560D03*
D114*
X36530Y14690D03*
D18*
X-21970Y14690D03*
D14*
X-29705Y14690D03*
D115*
X-40625Y14690D03*
D114*
X36530Y14820D03*
D18*
X-21970Y14820D03*
D14*
X-29705Y14820D03*
D59*
X-40690Y14820D03*
D114*
X36530Y14950D03*
D18*
X-21970Y14950D03*
D14*
X-29705Y14950D03*
D116*
X-40755Y14950D03*
D96*
X36595Y15080D03*
D18*
X-21970Y15080D03*
D14*
X-29705Y15080D03*
D117*
X-40820Y15080D03*
D96*
X36595Y15210D03*
D18*
X-21970Y15210D03*
D14*
X-29705Y15210D03*
D118*
X-40885Y15210D03*
D96*
X36595Y15340D03*
D18*
X-21970Y15340D03*
D14*
X-29705Y15340D03*
D89*
X-40950Y15340D03*
D119*
X36660Y15470D03*
D18*
X-21970Y15470D03*
D14*
X-29705Y15470D03*
D29*
X-41015Y15470D03*
D119*
X36660Y15600D03*
D18*
X-21970Y15600D03*
D14*
X-29705Y15600D03*
D28*
X-41080Y15600D03*
D95*
X36725Y15730D03*
D18*
X-21970Y15730D03*
D14*
X-29705Y15730D03*
D43*
X-41145Y15730D03*
D95*
X36725Y15860D03*
D18*
X-21970Y15860D03*
D14*
X-29705Y15860D03*
D99*
X-41210Y15860D03*
D94*
X36790Y15990D03*
D18*
X-21970Y15990D03*
D14*
X-29705Y15990D03*
D27*
X-41275Y15990D03*
D94*
X36790Y16120D03*
D18*
X-21970Y16120D03*
D14*
X-29705Y16120D03*
D120*
X-41340Y16120D03*
D93*
X36855Y16250D03*
D18*
X-21970Y16250D03*
D14*
X-29705Y16250D03*
D100*
X-41405Y16250D03*
D121*
X36920Y16380D03*
D18*
X-21970Y16380D03*
D14*
X-29705Y16380D03*
D26*
X-41470Y16380D03*
D121*
X36920Y16510D03*
D18*
X-21970Y16510D03*
D14*
X-29705Y16510D03*
D122*
X-41535Y16510D03*
D92*
X36985Y16640D03*
D18*
X-21970Y16640D03*
D14*
X-29705Y16640D03*
D103*
X-41600Y16640D03*
D91*
X37050Y16770D03*
D18*
X-21970Y16770D03*
D14*
X-29705Y16770D03*
D25*
X-41665Y16770D03*
D90*
X37115Y16900D03*
D18*
X-21970Y16900D03*
D14*
X-29705Y16900D03*
D11*
X-41730Y16900D03*
D123*
X37180Y17030D03*
D18*
X-21970Y17030D03*
D14*
X-29705Y17030D03*
D97*
X-41795Y17030D03*
D88*
X37245Y17160D03*
D18*
X-21970Y17160D03*
D14*
X-29705Y17160D03*
D24*
X-41860Y17160D03*
D87*
X37310Y17290D03*
D18*
X-21970Y17290D03*
D14*
X-29705Y17290D03*
D101*
X-41925Y17290D03*
D124*
X37375Y17420D03*
D18*
X-21970Y17420D03*
D14*
X-29705Y17420D03*
D104*
X-41990Y17420D03*
D86*
X37440Y17550D03*
D18*
X-21970Y17550D03*
D14*
X-29705Y17550D03*
D106*
X-42055Y17550D03*
D85*
X37505Y17680D03*
D18*
X-21970Y17680D03*
D14*
X-29705Y17680D03*
D23*
X-42120Y17680D03*
D84*
X37635Y17810D03*
D18*
X-21970Y17810D03*
D14*
X-29705Y17810D03*
D98*
X-42185Y17810D03*
D82*
X37700Y17940D03*
D18*
X-21970Y17940D03*
D14*
X-29705Y17940D03*
D107*
X-42250Y17940D03*
D80*
X37830Y18070D03*
D18*
X-21970Y18070D03*
D14*
X-29705Y18070D03*
D109*
X-42315Y18070D03*
D125*
X37960Y18200D03*
D18*
X-21970Y18200D03*
D14*
X-29705Y18200D03*
D22*
X-42380Y18200D03*
D126*
X38090Y18330D03*
D14*
X-21905Y18330D03*
X-29705Y18330D03*
D81*
X-42445Y18330D03*
D127*
X38220Y18460D03*
D73*
X38480Y18590D03*
D71*
X38740Y18720D03*
D128*
X24026Y-12131D02*
X27439Y-22369D01*
X20614Y-22369D02*
X24026Y-12131D01*
X21467Y-19810D02*
X26586Y-19810D01*
X13888Y-22369D02*
X13794Y-22367D01*
X13700Y-22361D01*
X13607Y-22352D01*
X13514Y-22338D01*
X13421Y-22321D01*
X13330Y-22299D01*
X13239Y-22274D01*
X13149Y-22246D01*
X13061Y-22213D01*
X12974Y-22177D01*
X12889Y-22138D01*
X12805Y-22095D01*
X12723Y-22048D01*
X12644Y-21999D01*
X12566Y-21946D01*
X12491Y-21889D01*
X12418Y-21830D01*
X12347Y-21768D01*
X12279Y-21703D01*
X12214Y-21635D01*
X12152Y-21564D01*
X12093Y-21491D01*
X12037Y-21416D01*
X11983Y-21338D01*
X11934Y-21259D01*
X11887Y-21177D01*
X11844Y-21093D01*
X11805Y-21008D01*
X11769Y-20921D01*
X11736Y-20833D01*
X11708Y-20743D01*
X11683Y-20652D01*
X11661Y-20561D01*
X11644Y-20468D01*
X11630Y-20375D01*
X11621Y-20282D01*
X11615Y-20188D01*
X11613Y-20094D01*
X13888Y-22369D02*
X14024Y-22367D01*
X14159Y-22361D01*
X14294Y-22352D01*
X14429Y-22338D01*
X14563Y-22321D01*
X14697Y-22300D01*
X14831Y-22276D01*
X14963Y-22247D01*
X15095Y-22215D01*
X15225Y-22179D01*
X15355Y-22140D01*
X15483Y-22096D01*
X15611Y-22050D01*
X15736Y-21999D01*
X15861Y-21945D01*
X15984Y-21888D01*
X16105Y-21827D01*
X16224Y-21763D01*
X16342Y-21696D01*
X16457Y-21625D01*
X16571Y-21551D01*
X16682Y-21473D01*
X16791Y-21393D01*
X16898Y-21310D01*
X17002Y-21223D01*
X17104Y-21134D01*
X17204Y-21042D01*
X17301Y-20947D01*
X17016Y-14406D02*
X17014Y-14312D01*
X17008Y-14218D01*
X16999Y-14125D01*
X16985Y-14032D01*
X16968Y-13939D01*
X16946Y-13848D01*
X16921Y-13757D01*
X16893Y-13667D01*
X16860Y-13579D01*
X16824Y-13492D01*
X16785Y-13407D01*
X16742Y-13323D01*
X16695Y-13241D01*
X16646Y-13162D01*
X16593Y-13084D01*
X16536Y-13009D01*
X16477Y-12936D01*
X16415Y-12865D01*
X16350Y-12797D01*
X16282Y-12732D01*
X16211Y-12670D01*
X16138Y-12611D01*
X16063Y-12554D01*
X15985Y-12501D01*
X15906Y-12452D01*
X15824Y-12405D01*
X15740Y-12362D01*
X15655Y-12323D01*
X15568Y-12287D01*
X15480Y-12254D01*
X15390Y-12226D01*
X15299Y-12201D01*
X15208Y-12179D01*
X15115Y-12162D01*
X15022Y-12148D01*
X14929Y-12139D01*
X14835Y-12133D01*
X14741Y-12131D01*
X14616Y-12133D01*
X14492Y-12138D01*
X14367Y-12147D01*
X14243Y-12160D01*
X14119Y-12177D01*
X13996Y-12197D01*
X13874Y-12220D01*
X13752Y-12247D01*
X13631Y-12278D01*
X13511Y-12312D01*
X13392Y-12350D01*
X13274Y-12391D01*
X13158Y-12436D01*
X13042Y-12484D01*
X12929Y-12535D01*
X12817Y-12590D01*
X12706Y-12648D01*
X12597Y-12709D01*
X12490Y-12773D01*
X12385Y-12840D01*
X12282Y-12911D01*
X12181Y-12984D01*
X15878Y-16397D02*
X15957Y-16349D01*
X16033Y-16297D01*
X16108Y-16243D01*
X16180Y-16185D01*
X16250Y-16125D01*
X16317Y-16062D01*
X16382Y-15996D01*
X16444Y-15928D01*
X16504Y-15857D01*
X16560Y-15784D01*
X16614Y-15709D01*
X16664Y-15632D01*
X16712Y-15553D01*
X16756Y-15472D01*
X16797Y-15389D01*
X16834Y-15305D01*
X16868Y-15219D01*
X16899Y-15132D01*
X16926Y-15044D01*
X16950Y-14954D01*
X16970Y-14864D01*
X16987Y-14774D01*
X16999Y-14682D01*
X17009Y-14590D01*
X17014Y-14498D01*
X17016Y-14406D01*
X12750Y-18103D02*
X12671Y-18151D01*
X12595Y-18203D01*
X12520Y-18258D01*
X12448Y-18315D01*
X12378Y-18375D01*
X12311Y-18438D01*
X12246Y-18504D01*
X12184Y-18572D01*
X12124Y-18643D01*
X12068Y-18716D01*
X12014Y-18791D01*
X11964Y-18868D01*
X11916Y-18947D01*
X11872Y-19028D01*
X11831Y-19111D01*
X11794Y-19195D01*
X11760Y-19281D01*
X11729Y-19368D01*
X11702Y-19456D01*
X11678Y-19546D01*
X11658Y-19636D01*
X11641Y-19726D01*
X11629Y-19818D01*
X11619Y-19910D01*
X11614Y-20002D01*
X11612Y-20094D01*
X12750Y-18103D02*
X15878Y-16397D01*
X7730Y-22369D02*
X4318Y-22369D01*
X4224Y-22367D01*
X4130Y-22361D01*
X4037Y-22352D01*
X3944Y-22338D01*
X3851Y-22321D01*
X3760Y-22299D01*
X3669Y-22274D01*
X3579Y-22246D01*
X3491Y-22213D01*
X3404Y-22177D01*
X3319Y-22138D01*
X3235Y-22095D01*
X3153Y-22048D01*
X3074Y-21999D01*
X2996Y-21946D01*
X2921Y-21889D01*
X2848Y-21830D01*
X2777Y-21768D01*
X2709Y-21703D01*
X2644Y-21635D01*
X2582Y-21564D01*
X2523Y-21491D01*
X2467Y-21416D01*
X2413Y-21338D01*
X2364Y-21259D01*
X2317Y-21177D01*
X2274Y-21093D01*
X2235Y-21008D01*
X2199Y-20921D01*
X2166Y-20833D01*
X2138Y-20743D01*
X2113Y-20653D01*
X2091Y-20561D01*
X2074Y-20468D01*
X2060Y-20375D01*
X2051Y-20282D01*
X2045Y-20188D01*
X2043Y-20094D01*
X2042Y-20094D02*
X2042Y-18956D01*
X2043Y-18956D02*
X2045Y-18862D01*
X2051Y-18768D01*
X2060Y-18675D01*
X2074Y-18582D01*
X2091Y-18489D01*
X2113Y-18398D01*
X2138Y-18307D01*
X2166Y-18217D01*
X2199Y-18129D01*
X2235Y-18042D01*
X2274Y-17957D01*
X2317Y-17873D01*
X2364Y-17791D01*
X2413Y-17712D01*
X2466Y-17634D01*
X2523Y-17559D01*
X2582Y-17486D01*
X2644Y-17415D01*
X2709Y-17347D01*
X2777Y-17282D01*
X2848Y-17220D01*
X2921Y-17161D01*
X2996Y-17104D01*
X3074Y-17051D01*
X3153Y-17002D01*
X3235Y-16955D01*
X3319Y-16912D01*
X3404Y-16873D01*
X3491Y-16837D01*
X3579Y-16804D01*
X3669Y-16776D01*
X3760Y-16751D01*
X3851Y-16729D01*
X3944Y-16712D01*
X4037Y-16698D01*
X4130Y-16689D01*
X4224Y-16683D01*
X4318Y-16681D01*
X7730Y-16681D01*
X7730Y-12131D01*
X2042Y-12131D01*
X-2170Y-16681D02*
X-5582Y-16681D01*
X-5676Y-16683D01*
X-5770Y-16689D01*
X-5863Y-16698D01*
X-5956Y-16712D01*
X-6049Y-16729D01*
X-6140Y-16751D01*
X-6231Y-16776D01*
X-6321Y-16804D01*
X-6409Y-16837D01*
X-6496Y-16873D01*
X-6581Y-16912D01*
X-6665Y-16955D01*
X-6747Y-17002D01*
X-6826Y-17051D01*
X-6904Y-17105D01*
X-6979Y-17161D01*
X-7052Y-17220D01*
X-7123Y-17282D01*
X-7191Y-17347D01*
X-7256Y-17415D01*
X-7318Y-17486D01*
X-7377Y-17559D01*
X-7434Y-17634D01*
X-7487Y-17712D01*
X-7536Y-17791D01*
X-7583Y-17873D01*
X-7626Y-17957D01*
X-7665Y-18042D01*
X-7701Y-18129D01*
X-7734Y-18217D01*
X-7762Y-18307D01*
X-7787Y-18398D01*
X-7809Y-18489D01*
X-7826Y-18582D01*
X-7840Y-18675D01*
X-7849Y-18768D01*
X-7855Y-18862D01*
X-7857Y-18956D01*
X-7858Y-18956D02*
X-7858Y-19525D01*
X-7856Y-19630D01*
X-7850Y-19735D01*
X-7841Y-19840D01*
X-7827Y-19944D01*
X-7810Y-20048D01*
X-7788Y-20151D01*
X-7763Y-20253D01*
X-7735Y-20354D01*
X-7702Y-20454D01*
X-7666Y-20552D01*
X-7626Y-20650D01*
X-7583Y-20745D01*
X-7536Y-20840D01*
X-7486Y-20932D01*
X-7432Y-21022D01*
X-7375Y-21110D01*
X-7315Y-21197D01*
X-7252Y-21281D01*
X-7185Y-21362D01*
X-7116Y-21441D01*
X-7044Y-21517D01*
X-6969Y-21591D01*
X-6891Y-21662D01*
X-6811Y-21730D01*
X-6728Y-21795D01*
X-6643Y-21856D01*
X-6556Y-21915D01*
X-6466Y-21970D01*
X-6375Y-22022D01*
X-6282Y-22071D01*
X-6187Y-22116D01*
X-6090Y-22158D01*
X-5992Y-22195D01*
X-5893Y-22230D01*
X-5792Y-22260D01*
X-5691Y-22287D01*
X-5588Y-22310D01*
X-5485Y-22330D01*
X-5381Y-22345D01*
X-5276Y-22357D01*
X-5172Y-22365D01*
X-5067Y-22369D01*
X-4961Y-22369D01*
X-4856Y-22365D01*
X-4752Y-22357D01*
X-4647Y-22345D01*
X-4543Y-22330D01*
X-4440Y-22310D01*
X-4337Y-22287D01*
X-4236Y-22260D01*
X-4135Y-22230D01*
X-4036Y-22195D01*
X-3938Y-22158D01*
X-3841Y-22116D01*
X-3746Y-22071D01*
X-3653Y-22022D01*
X-3562Y-21970D01*
X-3472Y-21915D01*
X-3385Y-21856D01*
X-3300Y-21795D01*
X-3217Y-21730D01*
X-3137Y-21662D01*
X-3059Y-21591D01*
X-2984Y-21517D01*
X-2912Y-21441D01*
X-2843Y-21362D01*
X-2776Y-21281D01*
X-2713Y-21197D01*
X-2653Y-21110D01*
X-2596Y-21022D01*
X-2542Y-20932D01*
X-2492Y-20840D01*
X-2445Y-20745D01*
X-2402Y-20650D01*
X-2362Y-20552D01*
X-2326Y-20454D01*
X-2293Y-20354D01*
X-2265Y-20253D01*
X-2240Y-20151D01*
X-2218Y-20048D01*
X-2201Y-19944D01*
X-2187Y-19840D01*
X-2178Y-19735D01*
X-2172Y-19630D01*
X-2170Y-19525D01*
X-2170Y-16681D01*
X-2172Y-16546D01*
X-2178Y-16411D01*
X-2188Y-16277D01*
X-2202Y-16143D01*
X-2220Y-16009D01*
X-2242Y-15876D01*
X-2268Y-15744D01*
X-2297Y-15612D01*
X-2331Y-15482D01*
X-2368Y-15352D01*
X-2410Y-15224D01*
X-2455Y-15097D01*
X-2504Y-14971D01*
X-2556Y-14847D01*
X-2612Y-14724D01*
X-2672Y-14603D01*
X-2735Y-14484D01*
X-2802Y-14367D01*
X-2873Y-14252D01*
X-2946Y-14139D01*
X-3023Y-14028D01*
X-3103Y-13920D01*
X-3187Y-13814D01*
X-3273Y-13711D01*
X-3363Y-13610D01*
X-3455Y-13512D01*
X-3551Y-13416D01*
X-3649Y-13324D01*
X-3750Y-13234D01*
X-3853Y-13148D01*
X-3959Y-13064D01*
X-4067Y-12984D01*
X-4178Y-12907D01*
X-4291Y-12834D01*
X-4406Y-12763D01*
X-4523Y-12696D01*
X-4642Y-12633D01*
X-4763Y-12573D01*
X-4886Y-12517D01*
X-5010Y-12465D01*
X-5136Y-12416D01*
X-5263Y-12371D01*
X-5391Y-12329D01*
X-5521Y-12292D01*
X-5651Y-12258D01*
X-5783Y-12229D01*
X-5915Y-12203D01*
X-6048Y-12181D01*
X-6182Y-12163D01*
X-6316Y-12149D01*
X-6450Y-12139D01*
X-6585Y-12133D01*
X-6720Y-12131D01*
X-12923Y-13553D02*
X-12837Y-13735D01*
X-12755Y-13919D01*
X-12678Y-14105D01*
X-12605Y-14293D01*
X-12537Y-14482D01*
X-12473Y-14673D01*
X-12414Y-14866D01*
X-12359Y-15060D01*
X-12309Y-15255D01*
X-12264Y-15451D01*
X-12223Y-15648D01*
X-12188Y-15847D01*
X-12156Y-16046D01*
X-12130Y-16245D01*
X-12108Y-16446D01*
X-12092Y-16646D01*
X-12080Y-16847D01*
X-12072Y-17049D01*
X-12070Y-17250D01*
X-12924Y-13553D02*
X-12955Y-13468D01*
X-12989Y-13385D01*
X-13027Y-13304D01*
X-13069Y-13224D01*
X-13114Y-13146D01*
X-13162Y-13070D01*
X-13214Y-12996D01*
X-13268Y-12924D01*
X-13326Y-12855D01*
X-13386Y-12788D01*
X-13449Y-12724D01*
X-13515Y-12663D01*
X-13584Y-12605D01*
X-13655Y-12549D01*
X-13728Y-12497D01*
X-13803Y-12448D01*
X-13881Y-12402D01*
X-13960Y-12360D01*
X-14041Y-12321D01*
X-14124Y-12285D01*
X-14208Y-12253D01*
X-14293Y-12225D01*
X-14380Y-12200D01*
X-14467Y-12179D01*
X-14556Y-12162D01*
X-14645Y-12148D01*
X-14734Y-12139D01*
X-14824Y-12133D01*
X-14914Y-12131D01*
X-15004Y-12133D01*
X-15094Y-12139D01*
X-15183Y-12148D01*
X-15272Y-12162D01*
X-15361Y-12179D01*
X-15448Y-12200D01*
X-15535Y-12225D01*
X-15620Y-12253D01*
X-15704Y-12285D01*
X-15787Y-12321D01*
X-15868Y-12360D01*
X-15947Y-12402D01*
X-16025Y-12448D01*
X-16100Y-12497D01*
X-16173Y-12549D01*
X-16244Y-12605D01*
X-16313Y-12663D01*
X-16379Y-12724D01*
X-16442Y-12789D01*
X-16502Y-12855D01*
X-16560Y-12924D01*
X-16614Y-12996D01*
X-16666Y-13070D01*
X-16714Y-13146D01*
X-16759Y-13224D01*
X-16801Y-13304D01*
X-16839Y-13385D01*
X-16873Y-13468D01*
X-16904Y-13553D01*
X-16905Y-13553D02*
X-16991Y-13735D01*
X-17073Y-13919D01*
X-17150Y-14105D01*
X-17223Y-14293D01*
X-17291Y-14482D01*
X-17355Y-14673D01*
X-17414Y-14866D01*
X-17469Y-15060D01*
X-17519Y-15255D01*
X-17564Y-15451D01*
X-17605Y-15648D01*
X-17640Y-15847D01*
X-17672Y-16046D01*
X-17698Y-16245D01*
X-17720Y-16446D01*
X-17736Y-16646D01*
X-17748Y-16847D01*
X-17756Y-17049D01*
X-17758Y-17250D01*
X-12070Y-17250D02*
X-12072Y-17451D01*
X-12080Y-17653D01*
X-12092Y-17854D01*
X-12108Y-18054D01*
X-12130Y-18255D01*
X-12156Y-18454D01*
X-12188Y-18653D01*
X-12223Y-18852D01*
X-12264Y-19049D01*
X-12309Y-19245D01*
X-12359Y-19440D01*
X-12414Y-19634D01*
X-12473Y-19827D01*
X-12537Y-20018D01*
X-12605Y-20207D01*
X-12678Y-20395D01*
X-12755Y-20581D01*
X-12837Y-20765D01*
X-12923Y-20947D01*
X-12923Y-20948D02*
X-12954Y-21032D01*
X-12988Y-21115D01*
X-13027Y-21197D01*
X-13068Y-21277D01*
X-13113Y-21355D01*
X-13161Y-21431D01*
X-13213Y-21505D01*
X-13267Y-21576D01*
X-13325Y-21646D01*
X-13385Y-21712D01*
X-13449Y-21776D01*
X-13515Y-21838D01*
X-13583Y-21896D01*
X-13654Y-21951D01*
X-13727Y-22004D01*
X-13803Y-22053D01*
X-13880Y-22099D01*
X-13960Y-22141D01*
X-14041Y-22180D01*
X-14123Y-22216D01*
X-14208Y-22248D01*
X-14293Y-22276D01*
X-14380Y-22301D01*
X-14467Y-22322D01*
X-14556Y-22339D01*
X-14645Y-22353D01*
X-14734Y-22362D01*
X-14824Y-22368D01*
X-14914Y-22370D01*
X-16905Y-20947D02*
X-16991Y-20765D01*
X-17073Y-20581D01*
X-17150Y-20395D01*
X-17223Y-20207D01*
X-17291Y-20018D01*
X-17355Y-19827D01*
X-17414Y-19634D01*
X-17469Y-19440D01*
X-17519Y-19245D01*
X-17564Y-19049D01*
X-17605Y-18852D01*
X-17640Y-18653D01*
X-17672Y-18454D01*
X-17698Y-18255D01*
X-17720Y-18054D01*
X-17736Y-17854D01*
X-17748Y-17653D01*
X-17756Y-17451D01*
X-17758Y-17250D01*
X-16904Y-20947D02*
X-16873Y-21032D01*
X-16839Y-21115D01*
X-16801Y-21196D01*
X-16759Y-21276D01*
X-16714Y-21354D01*
X-16666Y-21430D01*
X-16614Y-21504D01*
X-16560Y-21576D01*
X-16502Y-21645D01*
X-16442Y-21712D01*
X-16379Y-21776D01*
X-16313Y-21837D01*
X-16244Y-21895D01*
X-16173Y-21951D01*
X-16100Y-22003D01*
X-16025Y-22052D01*
X-15947Y-22098D01*
X-15868Y-22140D01*
X-15787Y-22179D01*
X-15704Y-22215D01*
X-15620Y-22247D01*
X-15535Y-22275D01*
X-15448Y-22300D01*
X-15361Y-22321D01*
X-15272Y-22338D01*
X-15183Y-22352D01*
X-15094Y-22361D01*
X-15004Y-22367D01*
X-14914Y-22369D01*
X-12639Y-20094D02*
X-17189Y-14406D01*
X-21970Y-17250D02*
X-21972Y-17049D01*
X-21980Y-16847D01*
X-21992Y-16646D01*
X-22008Y-16446D01*
X-22030Y-16245D01*
X-22056Y-16046D01*
X-22088Y-15847D01*
X-22123Y-15648D01*
X-22164Y-15451D01*
X-22209Y-15255D01*
X-22259Y-15060D01*
X-22314Y-14866D01*
X-22373Y-14673D01*
X-22437Y-14482D01*
X-22505Y-14293D01*
X-22578Y-14105D01*
X-22655Y-13919D01*
X-22737Y-13735D01*
X-22823Y-13553D01*
X-22824Y-13553D02*
X-22855Y-13468D01*
X-22889Y-13385D01*
X-22927Y-13304D01*
X-22969Y-13224D01*
X-23014Y-13146D01*
X-23062Y-13070D01*
X-23114Y-12996D01*
X-23168Y-12924D01*
X-23226Y-12855D01*
X-23286Y-12788D01*
X-23349Y-12724D01*
X-23415Y-12663D01*
X-23484Y-12605D01*
X-23555Y-12549D01*
X-23628Y-12497D01*
X-23703Y-12448D01*
X-23781Y-12402D01*
X-23860Y-12360D01*
X-23941Y-12321D01*
X-24024Y-12285D01*
X-24108Y-12253D01*
X-24193Y-12225D01*
X-24280Y-12200D01*
X-24367Y-12179D01*
X-24456Y-12162D01*
X-24545Y-12148D01*
X-24634Y-12139D01*
X-24724Y-12133D01*
X-24814Y-12131D01*
X-24904Y-12133D01*
X-24994Y-12139D01*
X-25083Y-12148D01*
X-25172Y-12162D01*
X-25261Y-12179D01*
X-25348Y-12200D01*
X-25435Y-12225D01*
X-25520Y-12253D01*
X-25604Y-12285D01*
X-25687Y-12321D01*
X-25768Y-12360D01*
X-25847Y-12402D01*
X-25925Y-12448D01*
X-26000Y-12497D01*
X-26073Y-12549D01*
X-26144Y-12605D01*
X-26213Y-12663D01*
X-26279Y-12724D01*
X-26342Y-12789D01*
X-26402Y-12855D01*
X-26460Y-12924D01*
X-26514Y-12996D01*
X-26566Y-13070D01*
X-26614Y-13146D01*
X-26659Y-13224D01*
X-26701Y-13304D01*
X-26739Y-13385D01*
X-26773Y-13468D01*
X-26804Y-13553D01*
X-26805Y-13553D02*
X-26891Y-13735D01*
X-26973Y-13919D01*
X-27050Y-14105D01*
X-27123Y-14293D01*
X-27191Y-14482D01*
X-27255Y-14673D01*
X-27314Y-14866D01*
X-27369Y-15060D01*
X-27419Y-15255D01*
X-27464Y-15451D01*
X-27505Y-15648D01*
X-27540Y-15847D01*
X-27572Y-16046D01*
X-27598Y-16245D01*
X-27620Y-16446D01*
X-27636Y-16646D01*
X-27648Y-16847D01*
X-27656Y-17049D01*
X-27658Y-17250D01*
X-21970Y-17250D02*
X-21972Y-17451D01*
X-21980Y-17653D01*
X-21992Y-17854D01*
X-22008Y-18054D01*
X-22030Y-18255D01*
X-22056Y-18454D01*
X-22088Y-18653D01*
X-22123Y-18852D01*
X-22164Y-19049D01*
X-22209Y-19245D01*
X-22259Y-19440D01*
X-22314Y-19634D01*
X-22373Y-19827D01*
X-22437Y-20018D01*
X-22505Y-20207D01*
X-22578Y-20395D01*
X-22655Y-20581D01*
X-22737Y-20765D01*
X-22823Y-20947D01*
X-22823Y-20948D02*
X-22854Y-21032D01*
X-22888Y-21115D01*
X-22927Y-21197D01*
X-22968Y-21277D01*
X-23013Y-21355D01*
X-23061Y-21431D01*
X-23113Y-21505D01*
X-23167Y-21576D01*
X-23225Y-21646D01*
X-23285Y-21712D01*
X-23349Y-21776D01*
X-23415Y-21838D01*
X-23483Y-21896D01*
X-23554Y-21951D01*
X-23627Y-22004D01*
X-23703Y-22053D01*
X-23780Y-22099D01*
X-23860Y-22141D01*
X-23941Y-22180D01*
X-24023Y-22216D01*
X-24108Y-22248D01*
X-24193Y-22276D01*
X-24280Y-22301D01*
X-24367Y-22322D01*
X-24456Y-22339D01*
X-24545Y-22353D01*
X-24634Y-22362D01*
X-24724Y-22368D01*
X-24814Y-22370D01*
X-26805Y-20947D02*
X-26891Y-20765D01*
X-26973Y-20581D01*
X-27050Y-20395D01*
X-27123Y-20207D01*
X-27191Y-20018D01*
X-27255Y-19827D01*
X-27314Y-19634D01*
X-27369Y-19440D01*
X-27419Y-19245D01*
X-27464Y-19049D01*
X-27505Y-18852D01*
X-27540Y-18653D01*
X-27572Y-18454D01*
X-27598Y-18255D01*
X-27620Y-18054D01*
X-27636Y-17854D01*
X-27648Y-17653D01*
X-27656Y-17451D01*
X-27658Y-17250D01*
X-26804Y-20947D02*
X-26773Y-21032D01*
X-26739Y-21115D01*
X-26701Y-21196D01*
X-26659Y-21276D01*
X-26614Y-21354D01*
X-26566Y-21430D01*
X-26514Y-21504D01*
X-26460Y-21576D01*
X-26402Y-21645D01*
X-26342Y-21712D01*
X-26279Y-21776D01*
X-26213Y-21837D01*
X-26144Y-21895D01*
X-26073Y-21951D01*
X-26000Y-22003D01*
X-25925Y-22052D01*
X-25847Y-22098D01*
X-25768Y-22140D01*
X-25687Y-22179D01*
X-25604Y-22215D01*
X-25520Y-22247D01*
X-25435Y-22275D01*
X-25348Y-22300D01*
X-25261Y-22321D01*
X-25172Y-22338D01*
X-25083Y-22352D01*
X-24994Y-22361D01*
X-24904Y-22367D01*
X-24814Y-22369D01*
X-22539Y-20094D02*
X-27089Y-14406D01*
X36868Y-30958D02*
X38879Y-30958D01*
X36868Y-30957D02*
X36779Y-30959D01*
X36690Y-30965D01*
X36602Y-30975D01*
X36514Y-30988D01*
X36427Y-31006D01*
X36340Y-31027D01*
X36255Y-31053D01*
X36171Y-31082D01*
X36088Y-31114D01*
X36007Y-31151D01*
X35927Y-31191D01*
X35850Y-31234D01*
X35774Y-31281D01*
X35700Y-31331D01*
X35629Y-31384D01*
X35560Y-31440D01*
X35494Y-31500D01*
X35430Y-31562D01*
X35370Y-31627D01*
X35312Y-31694D01*
X35257Y-31764D01*
X35205Y-31837D01*
X35157Y-31912D01*
X35112Y-31988D01*
X35070Y-32067D01*
X35032Y-32147D01*
X34998Y-32229D01*
X34967Y-32313D01*
X34940Y-32398D01*
X34916Y-32483D01*
X34897Y-32570D01*
X34881Y-32658D01*
X34869Y-32746D01*
X34861Y-32835D01*
X34857Y-32924D01*
X34857Y-33012D01*
X34861Y-33101D01*
X34869Y-33190D01*
X34881Y-33278D01*
X34897Y-33366D01*
X34916Y-33453D01*
X34940Y-33538D01*
X34967Y-33623D01*
X34998Y-33707D01*
X35032Y-33789D01*
X35070Y-33869D01*
X35112Y-33948D01*
X35157Y-34024D01*
X35205Y-34099D01*
X35257Y-34172D01*
X35312Y-34242D01*
X35370Y-34309D01*
X35430Y-34374D01*
X35494Y-34436D01*
X35560Y-34496D01*
X35629Y-34552D01*
X35700Y-34605D01*
X35774Y-34655D01*
X35850Y-34702D01*
X35927Y-34745D01*
X36007Y-34785D01*
X36088Y-34822D01*
X36171Y-34854D01*
X36255Y-34883D01*
X36340Y-34909D01*
X36427Y-34930D01*
X36514Y-34948D01*
X36602Y-34961D01*
X36690Y-34971D01*
X36779Y-34977D01*
X36868Y-34979D01*
X38879Y-34979D01*
X38879Y-27741D01*
X36868Y-27741D01*
X36789Y-27743D01*
X36710Y-27749D01*
X36632Y-27758D01*
X36554Y-27772D01*
X36477Y-27789D01*
X36401Y-27810D01*
X36326Y-27835D01*
X36253Y-27863D01*
X36180Y-27895D01*
X36110Y-27931D01*
X36041Y-27970D01*
X35975Y-28012D01*
X35910Y-28057D01*
X35848Y-28106D01*
X35788Y-28158D01*
X35731Y-28212D01*
X35677Y-28269D01*
X35625Y-28329D01*
X35576Y-28391D01*
X35531Y-28456D01*
X35489Y-28522D01*
X35450Y-28591D01*
X35414Y-28661D01*
X35382Y-28734D01*
X35354Y-28807D01*
X35329Y-28882D01*
X35308Y-28958D01*
X35291Y-29035D01*
X35277Y-29113D01*
X35268Y-29191D01*
X35262Y-29270D01*
X35260Y-29349D01*
X35262Y-29428D01*
X35268Y-29507D01*
X35277Y-29585D01*
X35291Y-29663D01*
X35308Y-29740D01*
X35329Y-29816D01*
X35354Y-29891D01*
X35382Y-29964D01*
X35414Y-30037D01*
X35450Y-30107D01*
X35489Y-30176D01*
X35531Y-30242D01*
X35576Y-30307D01*
X35625Y-30369D01*
X35677Y-30429D01*
X35731Y-30486D01*
X35788Y-30540D01*
X35848Y-30592D01*
X35910Y-30641D01*
X35975Y-30686D01*
X36041Y-30728D01*
X36110Y-30767D01*
X36180Y-30803D01*
X36253Y-30835D01*
X36326Y-30863D01*
X36401Y-30888D01*
X36477Y-30909D01*
X36554Y-30926D01*
X36632Y-30940D01*
X36710Y-30949D01*
X36789Y-30955D01*
X36868Y-30957D01*
X31828Y-30154D02*
X31828Y-34979D01*
X31828Y-30154D02*
X29415Y-30154D01*
X29415Y-30958D01*
X25867Y-34979D02*
X23857Y-34979D01*
X25867Y-34979D02*
X25935Y-34977D01*
X26002Y-34971D01*
X26069Y-34962D01*
X26135Y-34949D01*
X26201Y-34932D01*
X26265Y-34911D01*
X26329Y-34887D01*
X26390Y-34860D01*
X26450Y-34829D01*
X26509Y-34794D01*
X26565Y-34757D01*
X26619Y-34716D01*
X26671Y-34672D01*
X26720Y-34626D01*
X26766Y-34577D01*
X26810Y-34525D01*
X26851Y-34471D01*
X26888Y-34415D01*
X26923Y-34356D01*
X26954Y-34296D01*
X26981Y-34235D01*
X27005Y-34171D01*
X27026Y-34107D01*
X27043Y-34041D01*
X27056Y-33975D01*
X27065Y-33908D01*
X27071Y-33841D01*
X27073Y-33773D01*
X27074Y-33773D02*
X27074Y-31762D01*
X27073Y-31762D02*
X27071Y-31683D01*
X27065Y-31604D01*
X27056Y-31526D01*
X27042Y-31448D01*
X27025Y-31371D01*
X27004Y-31295D01*
X26979Y-31220D01*
X26951Y-31147D01*
X26919Y-31074D01*
X26883Y-31004D01*
X26844Y-30935D01*
X26802Y-30869D01*
X26757Y-30804D01*
X26708Y-30742D01*
X26656Y-30682D01*
X26602Y-30625D01*
X26545Y-30571D01*
X26485Y-30519D01*
X26423Y-30470D01*
X26358Y-30425D01*
X26292Y-30383D01*
X26223Y-30344D01*
X26153Y-30308D01*
X26080Y-30276D01*
X26007Y-30248D01*
X25932Y-30223D01*
X25856Y-30202D01*
X25779Y-30185D01*
X25701Y-30171D01*
X25623Y-30162D01*
X25544Y-30156D01*
X25465Y-30154D01*
X25386Y-30156D01*
X25307Y-30162D01*
X25229Y-30171D01*
X25151Y-30185D01*
X25074Y-30202D01*
X24998Y-30223D01*
X24923Y-30248D01*
X24850Y-30276D01*
X24777Y-30308D01*
X24707Y-30344D01*
X24638Y-30383D01*
X24572Y-30425D01*
X24507Y-30470D01*
X24445Y-30519D01*
X24385Y-30571D01*
X24328Y-30625D01*
X24274Y-30682D01*
X24222Y-30742D01*
X24173Y-30804D01*
X24128Y-30869D01*
X24086Y-30935D01*
X24047Y-31004D01*
X24011Y-31074D01*
X23979Y-31147D01*
X23951Y-31220D01*
X23926Y-31295D01*
X23905Y-31371D01*
X23888Y-31448D01*
X23874Y-31526D01*
X23865Y-31604D01*
X23859Y-31683D01*
X23857Y-31762D01*
X23857Y-32566D01*
X27074Y-32566D01*
X19467Y-32164D02*
X17658Y-32164D01*
X19467Y-32165D02*
X19541Y-32167D01*
X19614Y-32173D01*
X19687Y-32182D01*
X19760Y-32196D01*
X19831Y-32213D01*
X19902Y-32234D01*
X19971Y-32258D01*
X20039Y-32287D01*
X20106Y-32318D01*
X20170Y-32354D01*
X20233Y-32392D01*
X20294Y-32434D01*
X20352Y-32479D01*
X20408Y-32526D01*
X20462Y-32577D01*
X20513Y-32631D01*
X20560Y-32687D01*
X20605Y-32745D01*
X20647Y-32806D01*
X20685Y-32868D01*
X20721Y-32933D01*
X20752Y-33000D01*
X20781Y-33068D01*
X20805Y-33137D01*
X20826Y-33208D01*
X20843Y-33279D01*
X20857Y-33352D01*
X20866Y-33425D01*
X20872Y-33498D01*
X20874Y-33572D01*
X20872Y-33646D01*
X20866Y-33719D01*
X20857Y-33792D01*
X20843Y-33865D01*
X20826Y-33936D01*
X20805Y-34007D01*
X20781Y-34076D01*
X20752Y-34144D01*
X20721Y-34211D01*
X20685Y-34275D01*
X20647Y-34338D01*
X20605Y-34399D01*
X20560Y-34457D01*
X20513Y-34513D01*
X20462Y-34567D01*
X20408Y-34618D01*
X20352Y-34665D01*
X20294Y-34710D01*
X20233Y-34752D01*
X20171Y-34790D01*
X20106Y-34826D01*
X20039Y-34857D01*
X19971Y-34886D01*
X19902Y-34910D01*
X19831Y-34931D01*
X19760Y-34948D01*
X19687Y-34962D01*
X19614Y-34971D01*
X19541Y-34977D01*
X19467Y-34979D01*
X17658Y-34979D01*
X17658Y-31360D01*
X17660Y-31292D01*
X17666Y-31225D01*
X17675Y-31158D01*
X17688Y-31092D01*
X17705Y-31026D01*
X17726Y-30962D01*
X17750Y-30898D01*
X17777Y-30837D01*
X17808Y-30777D01*
X17843Y-30718D01*
X17880Y-30662D01*
X17921Y-30608D01*
X17965Y-30556D01*
X18011Y-30507D01*
X18060Y-30461D01*
X18112Y-30417D01*
X18166Y-30376D01*
X18222Y-30339D01*
X18281Y-30304D01*
X18341Y-30273D01*
X18403Y-30246D01*
X18466Y-30222D01*
X18530Y-30201D01*
X18596Y-30184D01*
X18662Y-30171D01*
X18729Y-30162D01*
X18796Y-30156D01*
X18864Y-30154D01*
X20472Y-30154D01*
X14020Y-27741D02*
X14020Y-34979D01*
X14020Y-32566D02*
X10803Y-30154D01*
X12613Y-31561D02*
X10803Y-34979D01*
X8114Y-33371D02*
X8114Y-31762D01*
X8113Y-31762D02*
X8111Y-31683D01*
X8105Y-31604D01*
X8096Y-31526D01*
X8082Y-31448D01*
X8065Y-31371D01*
X8044Y-31295D01*
X8019Y-31220D01*
X7991Y-31147D01*
X7959Y-31074D01*
X7923Y-31004D01*
X7884Y-30935D01*
X7842Y-30869D01*
X7797Y-30804D01*
X7748Y-30742D01*
X7696Y-30682D01*
X7642Y-30625D01*
X7585Y-30571D01*
X7525Y-30519D01*
X7463Y-30470D01*
X7398Y-30425D01*
X7332Y-30383D01*
X7263Y-30344D01*
X7193Y-30308D01*
X7120Y-30276D01*
X7047Y-30248D01*
X6972Y-30223D01*
X6896Y-30202D01*
X6819Y-30185D01*
X6741Y-30171D01*
X6663Y-30162D01*
X6584Y-30156D01*
X6505Y-30154D01*
X6426Y-30156D01*
X6347Y-30162D01*
X6269Y-30171D01*
X6191Y-30185D01*
X6114Y-30202D01*
X6038Y-30223D01*
X5963Y-30248D01*
X5890Y-30276D01*
X5817Y-30308D01*
X5747Y-30344D01*
X5678Y-30383D01*
X5612Y-30425D01*
X5547Y-30470D01*
X5485Y-30519D01*
X5425Y-30571D01*
X5368Y-30625D01*
X5314Y-30682D01*
X5262Y-30742D01*
X5213Y-30804D01*
X5168Y-30869D01*
X5126Y-30935D01*
X5087Y-31004D01*
X5051Y-31074D01*
X5019Y-31147D01*
X4991Y-31220D01*
X4966Y-31295D01*
X4945Y-31371D01*
X4928Y-31448D01*
X4914Y-31526D01*
X4905Y-31604D01*
X4899Y-31683D01*
X4897Y-31762D01*
X4897Y-33371D01*
X4899Y-33450D01*
X4905Y-33529D01*
X4914Y-33607D01*
X4928Y-33685D01*
X4945Y-33762D01*
X4966Y-33838D01*
X4991Y-33913D01*
X5019Y-33986D01*
X5051Y-34059D01*
X5087Y-34129D01*
X5126Y-34198D01*
X5168Y-34264D01*
X5213Y-34329D01*
X5262Y-34391D01*
X5314Y-34451D01*
X5368Y-34508D01*
X5425Y-34562D01*
X5485Y-34614D01*
X5547Y-34663D01*
X5612Y-34708D01*
X5678Y-34750D01*
X5747Y-34789D01*
X5817Y-34825D01*
X5890Y-34857D01*
X5963Y-34885D01*
X6038Y-34910D01*
X6114Y-34931D01*
X6191Y-34948D01*
X6269Y-34962D01*
X6347Y-34971D01*
X6426Y-34977D01*
X6505Y-34979D01*
X6584Y-34977D01*
X6663Y-34971D01*
X6741Y-34962D01*
X6819Y-34948D01*
X6896Y-34931D01*
X6972Y-34910D01*
X7047Y-34885D01*
X7120Y-34857D01*
X7193Y-34825D01*
X7263Y-34789D01*
X7332Y-34750D01*
X7398Y-34708D01*
X7463Y-34663D01*
X7525Y-34614D01*
X7585Y-34562D01*
X7642Y-34508D01*
X7696Y-34451D01*
X7748Y-34391D01*
X7797Y-34329D01*
X7842Y-34264D01*
X7884Y-34198D01*
X7923Y-34129D01*
X7959Y-34059D01*
X7991Y-33986D01*
X8019Y-33913D01*
X8044Y-33838D01*
X8065Y-33762D01*
X8082Y-33685D01*
X8096Y-33607D01*
X8105Y-33529D01*
X8111Y-33450D01*
X8113Y-33371D01*
X1634Y-33773D02*
X1634Y-30154D01*
X1634Y-33773D02*
X1632Y-33841D01*
X1626Y-33908D01*
X1617Y-33975D01*
X1604Y-34041D01*
X1587Y-34107D01*
X1566Y-34171D01*
X1542Y-34235D01*
X1515Y-34296D01*
X1484Y-34356D01*
X1449Y-34415D01*
X1412Y-34471D01*
X1371Y-34525D01*
X1327Y-34577D01*
X1281Y-34626D01*
X1232Y-34672D01*
X1180Y-34716D01*
X1126Y-34757D01*
X1070Y-34794D01*
X1011Y-34829D01*
X951Y-34860D01*
X890Y-34887D01*
X826Y-34911D01*
X762Y-34932D01*
X696Y-34949D01*
X630Y-34962D01*
X563Y-34971D01*
X496Y-34977D01*
X428Y-34979D01*
X-1583Y-34979D01*
X-1583Y-30154D01*
X-4225Y-30154D02*
X-6637Y-30154D01*
X-5029Y-27741D02*
X-5029Y-33773D01*
X-5031Y-33841D01*
X-5037Y-33908D01*
X-5046Y-33975D01*
X-5059Y-34041D01*
X-5076Y-34107D01*
X-5097Y-34171D01*
X-5121Y-34235D01*
X-5148Y-34296D01*
X-5179Y-34356D01*
X-5214Y-34415D01*
X-5251Y-34471D01*
X-5292Y-34525D01*
X-5336Y-34577D01*
X-5382Y-34626D01*
X-5431Y-34672D01*
X-5483Y-34716D01*
X-5537Y-34757D01*
X-5593Y-34794D01*
X-5652Y-34829D01*
X-5712Y-34860D01*
X-5773Y-34887D01*
X-5837Y-34911D01*
X-5901Y-34932D01*
X-5967Y-34949D01*
X-6033Y-34962D01*
X-6100Y-34971D01*
X-6167Y-34977D01*
X-6235Y-34979D01*
X-6637Y-34979D01*
X-13681Y-30958D02*
X-15691Y-30958D01*
X-15691Y-30957D02*
X-15780Y-30959D01*
X-15869Y-30965D01*
X-15957Y-30975D01*
X-16045Y-30988D01*
X-16132Y-31006D01*
X-16219Y-31027D01*
X-16304Y-31053D01*
X-16388Y-31082D01*
X-16471Y-31114D01*
X-16552Y-31151D01*
X-16632Y-31191D01*
X-16709Y-31234D01*
X-16785Y-31281D01*
X-16859Y-31331D01*
X-16930Y-31384D01*
X-16999Y-31440D01*
X-17065Y-31500D01*
X-17129Y-31562D01*
X-17189Y-31627D01*
X-17247Y-31694D01*
X-17302Y-31764D01*
X-17354Y-31837D01*
X-17402Y-31912D01*
X-17447Y-31988D01*
X-17489Y-32067D01*
X-17527Y-32147D01*
X-17561Y-32229D01*
X-17592Y-32313D01*
X-17619Y-32398D01*
X-17643Y-32483D01*
X-17662Y-32570D01*
X-17678Y-32658D01*
X-17690Y-32746D01*
X-17698Y-32835D01*
X-17702Y-32924D01*
X-17702Y-33012D01*
X-17698Y-33101D01*
X-17690Y-33190D01*
X-17678Y-33278D01*
X-17662Y-33366D01*
X-17643Y-33453D01*
X-17619Y-33538D01*
X-17592Y-33623D01*
X-17561Y-33707D01*
X-17527Y-33789D01*
X-17489Y-33869D01*
X-17447Y-33948D01*
X-17402Y-34024D01*
X-17354Y-34099D01*
X-17302Y-34172D01*
X-17247Y-34242D01*
X-17189Y-34309D01*
X-17129Y-34374D01*
X-17065Y-34436D01*
X-16999Y-34496D01*
X-16930Y-34552D01*
X-16859Y-34605D01*
X-16785Y-34655D01*
X-16709Y-34702D01*
X-16632Y-34745D01*
X-16552Y-34785D01*
X-16471Y-34822D01*
X-16388Y-34854D01*
X-16304Y-34883D01*
X-16219Y-34909D01*
X-16132Y-34930D01*
X-16045Y-34948D01*
X-15957Y-34961D01*
X-15869Y-34971D01*
X-15780Y-34977D01*
X-15691Y-34979D01*
X-13681Y-34979D01*
X-13681Y-27741D01*
X-15691Y-27741D01*
X-15770Y-27743D01*
X-15849Y-27749D01*
X-15927Y-27758D01*
X-16005Y-27772D01*
X-16082Y-27789D01*
X-16158Y-27810D01*
X-16233Y-27835D01*
X-16306Y-27863D01*
X-16379Y-27895D01*
X-16449Y-27931D01*
X-16518Y-27970D01*
X-16584Y-28012D01*
X-16649Y-28057D01*
X-16711Y-28106D01*
X-16771Y-28158D01*
X-16828Y-28212D01*
X-16882Y-28269D01*
X-16934Y-28329D01*
X-16983Y-28391D01*
X-17028Y-28456D01*
X-17070Y-28522D01*
X-17109Y-28591D01*
X-17145Y-28661D01*
X-17177Y-28734D01*
X-17205Y-28807D01*
X-17230Y-28882D01*
X-17251Y-28958D01*
X-17268Y-29035D01*
X-17282Y-29113D01*
X-17291Y-29191D01*
X-17297Y-29270D01*
X-17299Y-29349D01*
X-17297Y-29428D01*
X-17291Y-29507D01*
X-17282Y-29585D01*
X-17268Y-29663D01*
X-17251Y-29740D01*
X-17230Y-29816D01*
X-17205Y-29891D01*
X-17177Y-29964D01*
X-17145Y-30037D01*
X-17109Y-30107D01*
X-17070Y-30176D01*
X-17028Y-30242D01*
X-16983Y-30307D01*
X-16934Y-30369D01*
X-16882Y-30429D01*
X-16828Y-30486D01*
X-16771Y-30540D01*
X-16711Y-30592D01*
X-16649Y-30641D01*
X-16584Y-30686D01*
X-16518Y-30728D01*
X-16449Y-30767D01*
X-16379Y-30803D01*
X-16306Y-30835D01*
X-16233Y-30863D01*
X-16158Y-30888D01*
X-16082Y-30909D01*
X-16005Y-30926D01*
X-15927Y-30940D01*
X-15849Y-30949D01*
X-15770Y-30955D01*
X-15691Y-30957D01*
X-20446Y-31762D02*
X-20446Y-33371D01*
X-20447Y-31762D02*
X-20449Y-31683D01*
X-20455Y-31604D01*
X-20464Y-31526D01*
X-20478Y-31448D01*
X-20495Y-31371D01*
X-20516Y-31295D01*
X-20541Y-31220D01*
X-20569Y-31147D01*
X-20601Y-31074D01*
X-20637Y-31004D01*
X-20676Y-30935D01*
X-20718Y-30869D01*
X-20763Y-30804D01*
X-20812Y-30742D01*
X-20864Y-30682D01*
X-20918Y-30625D01*
X-20975Y-30571D01*
X-21035Y-30519D01*
X-21097Y-30470D01*
X-21162Y-30425D01*
X-21228Y-30383D01*
X-21297Y-30344D01*
X-21367Y-30308D01*
X-21440Y-30276D01*
X-21513Y-30248D01*
X-21588Y-30223D01*
X-21664Y-30202D01*
X-21741Y-30185D01*
X-21819Y-30171D01*
X-21897Y-30162D01*
X-21976Y-30156D01*
X-22055Y-30154D01*
X-22134Y-30156D01*
X-22213Y-30162D01*
X-22291Y-30171D01*
X-22369Y-30185D01*
X-22446Y-30202D01*
X-22522Y-30223D01*
X-22597Y-30248D01*
X-22670Y-30276D01*
X-22743Y-30308D01*
X-22813Y-30344D01*
X-22882Y-30383D01*
X-22948Y-30425D01*
X-23013Y-30470D01*
X-23075Y-30519D01*
X-23135Y-30571D01*
X-23192Y-30625D01*
X-23246Y-30682D01*
X-23298Y-30742D01*
X-23347Y-30804D01*
X-23392Y-30869D01*
X-23434Y-30935D01*
X-23473Y-31004D01*
X-23509Y-31074D01*
X-23541Y-31147D01*
X-23569Y-31220D01*
X-23594Y-31295D01*
X-23615Y-31371D01*
X-23632Y-31448D01*
X-23646Y-31526D01*
X-23655Y-31604D01*
X-23661Y-31683D01*
X-23663Y-31762D01*
X-23663Y-33371D01*
X-23661Y-33450D01*
X-23655Y-33529D01*
X-23646Y-33607D01*
X-23632Y-33685D01*
X-23615Y-33762D01*
X-23594Y-33838D01*
X-23569Y-33913D01*
X-23541Y-33986D01*
X-23509Y-34059D01*
X-23473Y-34129D01*
X-23434Y-34198D01*
X-23392Y-34264D01*
X-23347Y-34329D01*
X-23298Y-34391D01*
X-23246Y-34451D01*
X-23192Y-34508D01*
X-23135Y-34562D01*
X-23075Y-34614D01*
X-23013Y-34663D01*
X-22948Y-34708D01*
X-22882Y-34750D01*
X-22813Y-34789D01*
X-22743Y-34825D01*
X-22670Y-34857D01*
X-22597Y-34885D01*
X-22522Y-34910D01*
X-22446Y-34931D01*
X-22369Y-34948D01*
X-22291Y-34962D01*
X-22213Y-34971D01*
X-22134Y-34977D01*
X-22055Y-34979D01*
X-21976Y-34977D01*
X-21897Y-34971D01*
X-21819Y-34962D01*
X-21741Y-34948D01*
X-21664Y-34931D01*
X-21588Y-34910D01*
X-21513Y-34885D01*
X-21440Y-34857D01*
X-21367Y-34825D01*
X-21297Y-34789D01*
X-21228Y-34750D01*
X-21162Y-34708D01*
X-21097Y-34663D01*
X-21035Y-34614D01*
X-20975Y-34562D01*
X-20918Y-34508D01*
X-20864Y-34451D01*
X-20812Y-34391D01*
X-20763Y-34329D01*
X-20718Y-34264D01*
X-20676Y-34198D01*
X-20637Y-34129D01*
X-20601Y-34059D01*
X-20569Y-33986D01*
X-20541Y-33913D01*
X-20516Y-33838D01*
X-20495Y-33762D01*
X-20478Y-33685D01*
X-20464Y-33607D01*
X-20455Y-33529D01*
X-20449Y-33450D01*
X-20447Y-33371D01*
X-28053Y-32164D02*
X-29862Y-32164D01*
X-28053Y-32165D02*
X-27979Y-32167D01*
X-27906Y-32173D01*
X-27833Y-32182D01*
X-27760Y-32196D01*
X-27689Y-32213D01*
X-27618Y-32234D01*
X-27549Y-32258D01*
X-27481Y-32287D01*
X-27414Y-32318D01*
X-27350Y-32354D01*
X-27287Y-32392D01*
X-27226Y-32434D01*
X-27168Y-32479D01*
X-27112Y-32526D01*
X-27058Y-32577D01*
X-27007Y-32631D01*
X-26960Y-32687D01*
X-26915Y-32745D01*
X-26873Y-32806D01*
X-26835Y-32868D01*
X-26799Y-32933D01*
X-26768Y-33000D01*
X-26739Y-33068D01*
X-26715Y-33137D01*
X-26694Y-33208D01*
X-26677Y-33279D01*
X-26663Y-33352D01*
X-26654Y-33425D01*
X-26648Y-33498D01*
X-26646Y-33572D01*
X-26648Y-33646D01*
X-26654Y-33719D01*
X-26663Y-33792D01*
X-26677Y-33865D01*
X-26694Y-33936D01*
X-26715Y-34007D01*
X-26739Y-34076D01*
X-26768Y-34144D01*
X-26799Y-34211D01*
X-26835Y-34275D01*
X-26873Y-34338D01*
X-26915Y-34399D01*
X-26960Y-34457D01*
X-27007Y-34513D01*
X-27058Y-34567D01*
X-27112Y-34618D01*
X-27168Y-34665D01*
X-27226Y-34710D01*
X-27287Y-34752D01*
X-27349Y-34790D01*
X-27414Y-34826D01*
X-27481Y-34857D01*
X-27549Y-34886D01*
X-27618Y-34910D01*
X-27689Y-34931D01*
X-27760Y-34948D01*
X-27833Y-34962D01*
X-27906Y-34971D01*
X-27979Y-34977D01*
X-28053Y-34979D01*
X-29862Y-34979D01*
X-29862Y-31360D01*
X-29860Y-31292D01*
X-29854Y-31225D01*
X-29845Y-31158D01*
X-29832Y-31092D01*
X-29815Y-31026D01*
X-29794Y-30962D01*
X-29770Y-30898D01*
X-29743Y-30837D01*
X-29712Y-30777D01*
X-29677Y-30718D01*
X-29640Y-30662D01*
X-29599Y-30608D01*
X-29555Y-30556D01*
X-29509Y-30507D01*
X-29460Y-30461D01*
X-29408Y-30417D01*
X-29354Y-30376D01*
X-29298Y-30339D01*
X-29239Y-30304D01*
X-29179Y-30273D01*
X-29118Y-30246D01*
X-29054Y-30222D01*
X-28990Y-30201D01*
X-28924Y-30184D01*
X-28858Y-30171D01*
X-28791Y-30162D01*
X-28724Y-30156D01*
X-28656Y-30154D01*
X-27048Y-30154D01*
X-33452Y-30154D02*
X-33452Y-34979D01*
X-33452Y-30154D02*
X-35865Y-30154D01*
X-35865Y-30958D01*
X-41382Y-27741D02*
X-41382Y-34979D01*
X-39372Y-34979D01*
X-39304Y-34977D01*
X-39237Y-34971D01*
X-39170Y-34962D01*
X-39104Y-34949D01*
X-39038Y-34932D01*
X-38974Y-34911D01*
X-38910Y-34887D01*
X-38849Y-34860D01*
X-38789Y-34829D01*
X-38730Y-34794D01*
X-38674Y-34757D01*
X-38620Y-34716D01*
X-38568Y-34672D01*
X-38519Y-34626D01*
X-38473Y-34577D01*
X-38429Y-34525D01*
X-38388Y-34471D01*
X-38351Y-34415D01*
X-38316Y-34356D01*
X-38285Y-34296D01*
X-38258Y-34235D01*
X-38234Y-34171D01*
X-38213Y-34107D01*
X-38196Y-34041D01*
X-38183Y-33975D01*
X-38174Y-33908D01*
X-38168Y-33841D01*
X-38166Y-33773D01*
X-38165Y-33773D02*
X-38165Y-31360D01*
X-38166Y-31360D02*
X-38168Y-31292D01*
X-38174Y-31225D01*
X-38183Y-31158D01*
X-38196Y-31092D01*
X-38213Y-31026D01*
X-38234Y-30962D01*
X-38258Y-30898D01*
X-38285Y-30837D01*
X-38316Y-30777D01*
X-38351Y-30718D01*
X-38388Y-30662D01*
X-38429Y-30608D01*
X-38473Y-30556D01*
X-38519Y-30507D01*
X-38568Y-30461D01*
X-38620Y-30417D01*
X-38674Y-30376D01*
X-38730Y-30339D01*
X-38789Y-30304D01*
X-38849Y-30273D01*
X-38910Y-30246D01*
X-38974Y-30222D01*
X-39038Y-30201D01*
X-39104Y-30184D01*
X-39170Y-30171D01*
X-39237Y-30162D01*
X-39304Y-30156D01*
X-39372Y-30154D01*
X-41382Y-30154D01*
M02*
